<?xml version="1.0" encoding="UTF-8"?>
<svg xmlns="http://www.w3.org/2000/svg" width="395.05" height="661.2" viewBox="282.48 -3.1 395.05 661.2">
  <!-- Created using SVG Map Generator: dojo.amcharts.com/svg-map-generator -->
  <style>
    .land { fill: #831100; stroke: #000000; stroke-width: 1.1; }
  </style>
  <g id="polygons">
    <path d="M452.97,335.82L461,345.05L467.89,350.63L477.57,353.92L482.21,357.43L495.61,364.08L497.82,366.69L494.01,376.21L494.42,378.63L491.6,383.52L495.42,384.9L509.74,387.63L511.65,385.37L515.39,386.28L517.22,382.33L522.08,377.68L522.11,368.36L528.08,369.26L530.49,374.68L530.18,383.41L522.7,387.6L520.89,390.68L516.29,393.97L508.39,407.52L503.85,413.3L501.78,430.22L502.53,435.55L501.68,447.16L505.45,457.08L514.01,462L515.94,471.29L520.87,474.03L521.81,478.15L517.76,486.82L517.2,490.13L512.94,493.52L500.91,497.42L491.27,498.92L483.72,498.2L484.04,507.65L485.33,517.26L481.48,519.37L475.32,519.76L466.27,516.52L464.26,517.16L467.33,527.66L473.29,532.12L479.52,531.86L479.7,535.69L476.5,536.23L469.58,543.61L471.08,551.72L470.32,556.78L466.06,556.37L461.15,559.17L458.42,565.96L459.38,569.53L467.04,575.8L473.08,576.63L475.69,579.01L476.78,584.65L469.63,591.13L466.6,596.95L467.66,602.7L460.75,607.6L460.33,612.9L463.92,619.28L470.43,625.96L458.37,622.74L444.13,622.56L439.12,618.4L438.04,612.53L435.37,609.7L431.1,610.92L424.3,600.11L428.91,592.68L429.52,588.66L426.84,584.03L429.39,577.65L429.14,571.74L426.12,563.62L427.88,558.91L425.36,556.52L426.78,551.37L422.03,550.82L421.86,546.48L415.8,537.46L414.15,530.82L416.42,528.93L414.12,524.59L411.55,515.34L412.49,511.9L410.6,505.13L411.34,498.84L414.44,496.45L410.53,486.99L408.66,474.97L412.77,470.48L410.72,463.33L410.92,457.56L413.35,452.62L412.17,444.58L410.17,443.34L407.46,435.55L402.48,426.76L403.85,415.76L405.35,414.96L403.02,404.88L404.5,396.01L407.61,391.24L409.07,383.73L412.92,382.5L410.26,377.54L411.08,373.99L408.63,367.48L409.83,363.64L408.04,361.17L409.97,356.83L416.77,353.34L418.29,343.28L416.56,341.54L419.78,335.65L424.34,331.94L427.32,334.51L437,335.77L439.5,340.95L441.96,334.25L451.14,333.52ZM476.94,648.92L470.02,628.7L477.37,637.1L484.02,641.56L500.52,649.14L492.73,650.55L489.41,649.57Z" class="land" id="AR" title="Argentina"/>
    <path d="M487.63,315.69L487.15,312.32L479.19,307.15L471.66,307.26L457.62,310.64L454.26,319.56L454.78,324.45L452.97,335.82L451.14,333.52L441.96,334.25L439.5,340.95L437,335.77L427.32,334.51L424.34,331.94L419.78,335.65L416.56,341.54L410.97,341.55L406.56,326.73L403.29,320.04L401.11,318.55L400.69,311.37L402.32,308.57L397.68,304.06L395.72,295.14L391.75,289.85L390.52,286.88L395,281.46L390.8,271.38L392.52,267.82L390.63,265.16L394.12,257.75L392.12,252.74L392.34,244.96L394.52,241.29L386.12,226.26L395.97,226.91L409.28,216.8L420.25,214.26L421.12,229.12L424.85,236.18L429.89,240.69L441.27,242.91L443.98,246.09L448.96,247.42L452.41,251.22L458.3,250.87L463.23,253.78L465.5,261.82L467.73,277.84L481.3,278.41L483.17,287.21L488.04,289.91L490.79,297.36L489.61,305.15L487.48,311.6Z" class="land" id="BO" title="Bolivia"/>
    <path d="M492.49,101.46L495.48,98L504.91,95.16L508.13,97.74L512.18,99.73L515.23,97.46L521.93,99.12L524.16,97.38L530.26,84.43L533.14,80.95L536.76,80.64L538.04,88.49L541.21,99.63L542.86,102.54L547.04,104.19L547.5,109L544.18,112.16L539.8,118.58L535.9,121.07L532.4,127.62L530.39,135.6L538.98,131.04L540.92,137.29L543.34,139.75L549.05,138.88L552.43,137L555.13,137.95L562.4,127.38L568.4,126.31L573.31,127.79L583.09,133.29L587.85,134.43L591.42,137.14L594.34,144.78L595.98,145.39L605.8,144.1L611.58,147.26L614.7,146.82L619.38,148.66L626.42,147.3L630.69,147.93L643.22,156.22L646.84,161.04L654.24,167.78L659.15,169.57L667.85,169.88L670.53,174.11L674.42,190.78L674.32,197.39L670.4,209.59L661.94,221.73L657.55,224.99L653.83,231.55L651.74,237.39L647.44,244.61L642.86,244.01L640.68,251.82L642.09,256.11L641.39,262.17L643.44,273.91L641.41,288L642.13,291.77L639.54,294.55L637.83,300.86L638.54,307.07L633.64,319.62L630.64,322.9L628.95,328.73L628.74,334.36L624.14,336.56L621.88,342.76L609.8,343.72L606.97,342.4L600.8,343.82L594.92,349.95L590.55,351.02L583.66,355.31L576.17,362.72L571.56,370.7L571.4,379.34L572.91,384.14L573.33,392.71L572.45,397.58L565.77,405.26L562.63,415.62L555.7,415.02L554.14,421.73L550.52,424.95L550.35,432.59L547.55,442.04L542.75,447.92L540.63,442.36L543.22,438.13L537.19,431.51L529.81,425.94L518.97,421.89L515.93,417.59L509.95,412.51L503.85,413.3L508.39,407.52L516.29,393.97L520.89,390.68L522.7,387.6L530.18,383.41L530.49,374.68L528.08,369.26L522.11,368.36L523.49,353.47L520.12,351.18L514.28,352.92L508.61,336.53L502.9,334.54L499.69,336.18L490.89,333.99L491.12,323.79L487.63,315.69L487.48,311.6L489.61,305.15L490.79,297.36L488.04,289.91L483.17,287.21L481.3,278.41L467.73,277.84L465.5,261.82L463.23,253.78L458.3,250.87L452.41,251.22L448.96,247.42L443.98,246.09L441.27,242.91L429.89,240.69L424.85,236.18L421.12,229.12L420.25,214.26L409.28,216.8L395.97,226.91L386.12,226.26L377.31,226.83L376.49,211.99L371.74,216.71L363.91,217.08L362,212.29L355.03,211.34L356.77,207.29L351.66,201.02L347.52,193.37L349.53,191.24L349.29,187.08L354.3,182.82L353.35,179.26L355.95,169.82L364.49,163.83L371.73,162.34L373.15,160.63L380.13,161.23L384.41,131.81L382.14,124.91L378.77,121.59L378.92,114.65L386.38,111.89L380.62,110L380.7,103.71L394.69,103.61L401.62,100.07L405.52,108.41L409.24,112.29L420.34,109.53L428.64,104.58L429.33,101.82L434.73,98.74L430.32,96.52L427.96,89.24L428.01,85.54L425.17,82.51L435.81,82.3L438.48,85.47L440.7,81.37L445.39,80.6L455.09,76.36L458.52,71.92L457.42,69.91L463.67,71.06L462.54,76.6L464.85,76.94L467.1,82.19L464.51,85.54L463.21,94.22L465.11,101.86L469.47,106.94L472.54,108.6L476.93,104.89L483.18,103.76L487.18,100.76ZM549.73,122.47L554.02,121.83L560.18,123.66L555.63,134.59L550.13,136.81L542.45,137.55L540.31,132.25L541.23,122.89L544.55,121.38ZM531.34,134.12L533.71,126.53L535.97,130.13Z" class="land" id="BR" title="Brazil"/>
    <path d="M416.56,341.54L418.29,343.28L416.77,353.34L409.97,356.83L408.04,361.17L409.83,363.64L408.63,367.48L411.08,373.99L410.26,377.54L412.92,382.5L409.07,383.73L407.61,391.24L404.5,396.01L403.02,404.88L405.35,414.96L403.85,415.76L402.48,426.76L407.46,435.55L410.17,443.34L412.17,444.58L413.35,452.62L410.92,457.56L410.72,463.33L412.77,470.48L408.66,474.97L410.53,486.99L414.44,496.45L411.34,498.84L410.6,505.13L412.49,511.9L411.55,515.34L414.12,524.59L416.42,528.93L414.15,530.82L415.8,537.46L421.86,546.48L422.03,550.82L426.78,551.37L425.36,556.52L427.88,558.91L426.12,563.62L429.14,571.74L429.39,577.65L426.84,584.03L429.52,588.66L428.91,592.68L424.3,600.11L431.1,610.92L435.37,609.7L438.04,612.53L439.12,618.4L444.13,622.56L458.37,622.74L470.43,625.96L464.19,624.56L462.57,626.56L454.78,629.77L456.67,639.08L447.74,637.73L451.54,632.9L440.12,634.15L431.15,628.58L432.72,623.04L428.57,620.66L427.62,616.45L420.05,613.95L416.74,610.39L419.99,603.78L415.55,590.83L410.45,582.39L411.97,575.5L399.64,572.05L403.75,567.76L401.84,565.06L408.34,564.03L412.09,561.32L412.05,556.5L416.06,554.17L415.8,551.33L410.51,548.77L411.07,543.62L409.12,530.85L410.46,527.76L405.39,523.56L402.17,526L397,519.46L396.65,509.45L397.96,501.16L390.95,486.38L390.24,481.43L393.2,481.22L394.34,465.86L396.44,461.1L396.25,452.04L397.9,447.05L396.17,441.62L397.63,437.38L393.17,422.86L391.6,414.69L393.42,412.87L393.24,408.06L390.37,401.01L392.14,395.66L393.28,375.7L391.93,370.39L393.22,364.43L391.43,359.28L390.95,350.88L389.38,343.83L391,341.8L391.31,328.61L389.51,321.14L388.87,312.19L385.11,298L389.02,296.65L389.13,291.77L391.75,289.85L395.72,295.14L397.68,304.06L402.32,308.57L400.69,311.37L401.11,318.55L403.29,320.04L406.56,326.73L410.97,341.55ZM404.39,540.88L399.75,540.09L398.22,525.98L402.38,526.95L405.84,536.95ZM407.59,550.93L409.71,557.85L407.5,559.81L401.64,553.35ZM416.29,596.02L418.31,603.93L412.49,602.59L410.87,595.42ZM470.02,628.7L476.94,648.92L468.86,647.63L463.69,648.51L459.24,644.21L457.94,640.04L461.97,635.76L458.53,632.15L462.1,629.43ZM469.7,649.52L480.89,652.58L481.69,655L473.52,654.3Z" class="land" id="CL" title="Chile"/>
    <path d="M372.21,5.41L366.78,7.31L364.06,11.86L360.17,15.35L356.92,25.49L353.7,30.94L358.31,32.09L361.11,39.13L360.48,48.1L363.33,51.57L372.23,52.56L375.25,51.7L379.87,53.11L385.06,60.88L393.14,60.67L398.3,59.38L401.72,61.94L398.28,69.25L397.83,76.64L399.31,82.86L402.15,87.2L397.69,92.26L402.83,97.12L405.52,108.41L401.62,100.07L394.69,103.61L380.7,103.71L380.62,110L386.38,111.89L378.92,114.65L378.77,121.59L382.14,124.91L384.41,131.81L380.13,161.23L376.91,157.15L373.6,156.84L378.94,146.86L371.84,141.71L367.82,142.83L364.83,141.08L359.49,143.74L353.12,142.29L352.71,137.96L350.2,136.63L348.75,132.33L343.87,129.64L339.2,122.18L335.16,121.27L326.58,115.91L325.04,117.97L317.28,116.13L316.91,114.09L309.87,110.13L305.32,106.17L307.72,103.08L307.45,97.93L311.63,96.17L315.46,92.4L319.86,82.88L317.73,80.96L319.08,74.56L318.33,67.84L319.72,64.32L318.03,60.47L319.07,57.3L314.85,50.29L324,41.95L323.96,36.82L329.25,33.25L330.57,30.57L334.81,28.78L334.98,21.55L337.1,17.54L342.42,12.7L345.59,13.87L349.1,10.46L355.27,10.9L364.29,5.15L369.31,0L373.01,0.82Z" class="land" id="CO" title="Colombia"/>
    <path d="M335.16,121.27L335.35,125.62L332.84,135.06L328.56,140.89L323.69,145.04L313.88,149.1L309.9,153.44L309.37,156.79L304.21,168.54L302.06,167.93L299.36,163.35L291.97,159.62L294.69,157.77L293.36,153.03L296.67,150.14L298.18,145.2L292.17,145.65L289.41,140.34L288.21,130.69L291.11,128.45L291.69,123.81L294.61,120.3L295,112.66L304.97,108.58L305.32,106.17L309.87,110.13L316.91,114.09L317.28,116.13L325.04,117.97L326.58,115.91Z" class="land" id="EC" title="Ecuador"/>
    <path d="M526.91,617.66L534.21,617.34L530.93,622.38ZM536.84,615.87L545.34,619.96L537.66,624.26Z" class="land" id="FK" title="Falkland Islands"/>
    <path d="M533.14,80.95L530.26,84.43L524.16,97.38L521.93,99.12L515.23,97.46L512.18,99.73L508.13,97.74L511.71,92.98L513.52,85.52L510.59,81.02L509.92,71.74L512.47,68.39L515.15,64.29L522.98,67.76L527.97,72.43Z" class="land" id="GF" title="French Guiana"/>
    <path d="M487.14,66.56L485.88,71.67L482.69,71.95L479.66,79.88L490.65,100.55L492.49,101.46L487.18,100.76L483.18,103.76L476.93,104.89L472.54,108.6L469.47,106.94L465.11,101.86L463.21,94.22L464.51,85.54L467.1,82.19L464.85,76.94L462.54,76.6L463.67,71.06L457.42,69.91L452.31,63.09L454.47,60.12L454.47,55.47L460.81,53.04L458.3,47.68L460.13,44.63L464.23,42.31L464.55,37.51L471.18,42.1L475.77,47.22L476.82,52.14L480.9,54.58L487.32,61.24Z" class="land" id="GY" title="Guyana"/>
    <path d="M380.13,161.23L373.15,160.63L371.73,162.34L364.49,163.83L355.95,169.82L353.35,179.26L354.3,182.82L349.29,187.08L349.53,191.24L347.52,193.37L351.66,201.02L356.77,207.29L355.03,211.34L362,212.29L363.91,217.08L371.74,216.71L376.49,211.99L377.31,226.83L386.12,226.26L394.52,241.29L392.34,244.96L392.12,252.74L394.12,257.75L390.63,265.16L392.52,267.82L390.8,271.38L395,281.46L390.52,286.88L391.75,289.85L389.13,291.77L389.02,296.65L385.11,298L376.87,291.56L374.88,287.8L366.6,282.1L354.87,276.71L343.61,269.52L336.05,261.96L332.68,257.11L333.04,251.12L326.76,239.81L323.89,237.01L323.04,233.16L319.35,229.52L318.19,225.15L313.98,217.91L308.34,203.65L302.81,196.07L299.25,188.63L296.17,184.6L290.17,181.04L285.58,162.07L289.48,156.35L293.36,153.03L294.69,157.77L291.97,159.62L299.36,163.35L302.06,167.93L304.21,168.54L309.37,156.79L309.9,153.44L313.88,149.1L323.69,145.04L328.56,140.89L332.84,135.06L335.35,125.62L335.16,121.27L339.2,122.18L343.87,129.64L348.75,132.33L350.2,136.63L352.71,137.96L353.12,142.29L359.49,143.74L364.83,141.08L367.82,142.83L371.84,141.71L378.94,146.86L373.6,156.84L376.91,157.15Z" class="land" id="PE" title="Peru"/>
    <path d="M487.63,315.69L491.12,323.79L490.89,333.99L499.69,336.18L502.9,334.54L508.61,336.53L514.28,352.92L520.12,351.18L523.49,353.47L522.11,368.36L522.08,377.68L517.22,382.33L515.39,386.28L511.65,385.37L509.74,387.63L495.42,384.9L491.6,383.52L494.42,378.63L494.01,376.21L497.82,366.69L495.61,364.08L482.21,357.43L477.57,353.92L467.89,350.63L461,345.05L452.97,335.82L454.78,324.45L454.26,319.56L457.62,310.64L471.66,307.26L479.19,307.15L487.15,312.32Z" class="land" id="PY" title="Paraguay"/>
    <path d="M512.47,68.39L509.92,71.74L510.59,81.02L513.52,85.52L511.71,92.98L508.13,97.74L504.91,95.16L495.48,98L492.49,101.46L490.65,100.55L479.66,79.88L482.69,71.95L485.88,71.67L487.14,66.56L489.13,62.26L497.68,64.17L498.65,62.56L506.96,62.3L513.43,64.05Z" class="land" id="SR" title="Suriname"/>
    <path d="M542.75,447.92L540.43,454.13L537.86,456.96L532.49,459.51L526.17,457.98L522.88,459.26L513.84,454.84L508.69,455.08L503.25,449.58L502.56,443.23L504.13,439.66L502.53,435.55L501.78,430.22L503.85,413.3L509.95,412.51L515.93,417.59L518.97,421.89L529.81,425.94L537.19,431.51L543.22,438.13L540.63,442.36Z" class="land" id="UY" title="Uruguay"/>
    <path d="M464.55,37.51L464.23,42.31L460.13,44.63L458.3,47.68L460.81,53.04L454.47,55.47L454.47,60.12L452.31,63.09L457.42,69.91L458.52,71.92L455.09,76.36L445.39,80.6L440.7,81.37L438.48,85.47L435.81,82.3L425.17,82.51L428.01,85.54L427.96,89.24L430.32,96.52L434.73,98.74L429.33,101.82L428.64,104.58L420.34,109.53L409.24,112.29L405.52,108.41L402.83,97.12L397.69,92.26L402.15,87.2L399.31,82.86L397.83,76.64L398.28,69.25L401.72,61.94L398.3,59.38L393.14,60.67L385.06,60.88L379.87,53.11L375.25,51.7L372.23,52.56L363.33,51.57L360.48,48.1L361.11,39.13L358.31,32.09L353.7,30.94L356.92,25.49L360.17,15.35L364.06,11.86L366.78,7.31L372.21,5.41L366.71,9.75L369.18,17.09L364.38,25.24L367.53,32.44L370.8,31.92L373.14,26.3L370.67,20.89L370.4,14.11L380.94,10.15L380.81,5.18L383.35,2.35L386,9.11L392.65,9.58L396.05,12.2L397.08,17.94L400.04,18.88L413.65,17.33L416.74,20.96L424.99,22.5L433.41,17.02L443.2,16.19L441.86,19.4L444.47,21.75L458.43,29.65L456.14,32.22L453.77,38.85L458.03,37.09Z" class="land" id="VE" title="Venezuela"/>
  </g>
</svg>