<?xml version="1.0" encoding="UTF-8"?>
<svg xmlns="http://www.w3.org/2000/svg" width="722.42" height="661.2" viewBox="118.79 -3.1 722.42 661.2">
  <!-- Created using SVG Map Generator: dojo.amcharts.com/svg-map-generator -->
  <style>
    .land { fill: #831100; stroke: #000000; stroke-width: 1.1; }
  </style>
  <g id="polygons">
    <path d="M837.98,276.81L837.92,275.93L838.11,276.32Z" class="land" id="TV" title="Tuvalu"/>
    <path d="M710.66,0.42L710.17,0.17L710.29,0L710.58,0.13Z" class="land" id="UM-WQ" title="Wake Island"/>
    <path d="M721.61,339.13L724.27,342.2L724.12,345.69L720.64,347.18L719.47,344.9L719.71,339.37Z" class="land" id="VU" title="Vanuatu"/>
    <path d="M374.44,286.32L373.72,280.67L376.16,277.74L381.65,276.2L388.64,275.87L390.94,278.41L377.56,283.98Z" class="land" id="TL" title="Timor-Leste"/>
    <path d="M672.74,276.61L665.27,271.72L666.82,270.36L672.65,274.56ZM670.8,283.95L677.89,287.09L677.67,290.46L671.05,289.1L669.4,286.52ZM680.41,274.43L682.21,277.39L683.63,284.39L680.53,282.79L678.99,275.02Z" class="land" id="SB" title="Solomon Islands"/>
    <path d="M616.72,239.13L614.42,236.57L613.98,231.57L618.35,234.13ZM640.98,258.28L638.79,260.03L635.7,258.63L634.82,254.52L631.48,251.17L633.62,246.9L637.21,252.91L640.07,255.24ZM607.98,234.57L612.15,235L611.89,238.88L608.42,241.58L609.31,245.09L606.79,247.15L603.8,247.02L601.1,250.67L593.99,254.21L587.34,254.35L582.96,252.73L577.01,249.14L576.67,246.95L582.31,246.35L584.36,247.23L593.4,246.86L599.08,245.74L602.57,241.15L605.56,240.39L604.84,235.05ZM510.66,282.42L512.64,260.45L514.3,233.87L514.91,217.83L516.72,218.01L525.36,222.54L536.35,225.98L540.55,229.48L544.49,229.89L549.47,235.09L551.57,235.45L555.04,239.79L555.38,246.22L560.01,247.66L565.2,250.66L568.11,250.97L571.49,254.59L571.59,258.04L565.34,258.63L563.82,260.68L565.4,265.14L569.52,270.09L572.75,272.34L573.33,276.82L575.69,281.75L581.34,281.94L580.6,285.28L585.63,291.3L592.09,293.72L590.04,297.49L586.15,296.9L584.18,294.68L567.59,291.86L559.61,281.49L554.88,272.07L546.08,269.35L542.32,267.02L534.09,273.3L529.55,274.4L531.23,280.85L524.71,284.49L521.31,282.93L511.89,283.44Z" class="land" id="PG" title="Papua New Guinea"/>
    <path d="M457.7,118.73L456.9,118.18L457.19,116.63L458.02,115.94Z" class="land" id="PW" title="Palau"/>
    <path d="M667.94,602.73L674.64,599.86L678.9,600.16L674.2,604.96L674.21,607.29L663.45,614.96L657.95,619.47L652.19,622.25L649.58,628.47L645.83,627.86L636.48,630.87L627.86,639.72L620.26,646.02L606.46,654.48L596.09,655L593.57,650.98L586.25,651.03L590.69,644.64L598.1,638.97L612.97,630.33L616.97,629.45L626.22,625.52L634.34,620.76L638.92,618.99L645.9,614.44L651.92,607.83L658.23,604.37L662.31,599.45L668.88,595.21L669.61,598.47ZM705.23,539.72L709.4,540.63L712.09,542.83L709.88,548.08L710.3,553.41L706.75,558.71L710.53,560.22L714.68,555.07L715.35,559.87L713.33,566.7L721.14,570.14L729.03,565.81L732.45,567.17L725.28,575.71L721.94,577.41L719.34,581.58L715.28,580.97L709.96,583.81L709.34,586.84L704.26,591.64L690.9,602.08L683.09,606.01L679.83,602.83L688.14,596.23L690.91,592.94L691.02,589.6L685.17,585.21L686.64,581.55L694.71,578.03L703,568.29L703.42,564.75L706.66,559.73L704.22,559.71L706.68,554.82L704.14,552.09L702.6,542.42Z" class="land" id="NZ" title="New Zealand"/>
    <path d="M738.03,197.08L737.67,197.37L737.65,196.9Z" class="land" id="NR" title="Nauru"/>
    <path d="M688.99,480.64L689.08,481.22L688.57,481.3Z" class="land" id="NF" title="Norfolk Island"/>
    <path d="M687.43,393.09L689.3,393.45L694.31,398.31L696.85,403.27L705.16,411.48L702.89,414.33L692.58,405.85L687.95,398.9Z" class="land" id="NC" title="New Caledonia"/>
    <path d="M542.94,41.72L542.38,41.81L542.47,40.91L543.12,41.31Z" class="land" id="MP" title="Northern Mariana Islands"/>
    <path d="M770.11,121.15L771.23,121.66L771.03,121.79L770.09,121.44Z" class="land" id="MH" title="Marshall Islands"/>
    <path d="M802.73,199.91L802.48,199.63L802.26,198.37L802.46,198.32Z" class="land" id="KI" title="Kiribati"/>
    <path d="M514.91,217.83L514.3,233.87L512.64,260.45L510.66,282.42L502.74,272.31L497.97,273.19L493.48,272.76L495.95,267.22L493.31,263.89L494.62,259.98L491.35,254.87L488.69,246.16L480.67,240.79L471.37,236.89L464.7,236.1L456,229.61L451.93,225.32L448.19,232.24L445.78,232.57L444.1,228.69L444.23,224.63L440.88,221.46L448.26,216.13L451.81,217.22L454.6,212.8L446.34,214.49L440.73,214.19L438.35,211.69L437.64,207.42L432.2,205.78L431.95,200.44L436.66,198.93L439.45,196.46L443.71,195.51L450.96,199.16L455.26,199.34L457.63,205.47L456.26,209.02L456.58,213.73L463.8,225.01L467.65,225.13L474.38,217.57L475.71,214.5L479.61,213.75L482.1,210.21L488.01,206.66L495.19,209.72L504.83,215.24L511.94,216.21ZM142.36,177.43L146.27,182.3L145.81,185.72L141.76,182.56ZM377.35,182.08L373.43,187.29L367.66,188.92L363.47,188.72L361.9,187.14L351.27,187.63L347.7,187.05L338.47,187.5L336.58,190.3L335.58,195L336.3,198.4L339.87,202.26L341.12,205.54L344.25,205.9L348.48,200.44L352.32,201.21L355,199.46L360.22,199.45L356.89,205.32L350.05,210.42L351.07,215.08L355.56,223.7L354.16,227.86L359.33,232.71L359.4,235.09L353.43,236.55L350.79,240.04L347.22,237.39L348.55,232.55L342.72,227.22L344.14,219.24L340.75,218.41L337.22,222.23L338.58,228.72L338.07,237.75L336.62,243L336.69,246.92L331.52,248.42L328.75,245.76L331.23,235.83L331.49,231.97L329.94,226.42L326.28,227.04L324.7,219.37L327.41,216.58L329.5,211.09L329.47,205.92L333.52,196.75L333.85,189.59L337.75,182.33L339.88,183.84L343.23,179.17L349.08,181.37L356.32,181.86L360.25,183.53L363.55,182.75L368.43,183.64L372.07,181.82L378.12,175.08L380.24,177.06ZM401.74,183.54L405.38,180.47L407.59,176.91L410.03,180.98L406.59,183.26L409.99,188.38L400.25,187.1L399.02,179.54L400.74,173.67L404.01,175.08L404.08,178.75ZM305.06,148.72L309.76,148.94L312.81,150.37L314.55,155.89L310.59,156.33L314.56,161.56L318.66,168.97L317,172.43L318.9,175.08L326.74,182.22L322.89,183.89L319.99,183.29L316.13,184.72L314.24,189.62L313.73,195.16L314.56,199.6L305.85,206.57L304.63,212.31L305.8,214.76L300.23,227.61L289.21,233.31L288.09,226.61L284.27,224.47L281.76,226.23L279.53,223.53L274.78,223.56L271.54,225.67L268.86,224.89L264.83,226.98L264.97,222.28L261.1,221.05L258.3,222.26L254.31,220.63L251.38,220.96L249.84,205.83L247.89,201.99L245.05,200.57L242.55,196.86L243.39,191.65L240.7,188.43L240.35,184.08L241.74,177.12L244.27,172.89L254.06,183.4L257.76,181.87L264.89,182.04L267.52,180.62L270.88,176.49L280.74,179.7L283.12,177.73L288.63,177.4L290.99,172.32L290.56,169.64L293.63,167.23L292.99,163.78L296.1,161.86L296.79,152.89L299.44,148.83ZM132.92,140.09L141.12,140.02L145.18,143.56L148.26,148.17L148.87,151.36L161.33,160.39L167.75,169.57L169.73,170.93L172.8,169.57L176.58,175.16L179.23,175.88L185.18,184.23L190.31,187.08L193.85,187.19L196.5,191.49L193.42,193.85L193.44,197.24L195.9,200.75L201.37,202.25L203.82,215.61L210.06,215.56L215.44,222.76L213.58,227.79L213.45,241.64L212.54,248.26L208.6,247L206.22,248.94L202.54,246.71L202.03,250.51L195.81,242.34L185.09,233.13L181.75,227.65L177.16,223.36L171.12,213.22L171.22,211.14L166.65,200.15L160.58,190.94L156.82,188.47L153.62,177.13L151.58,173.09L144.1,168.56L143.07,163.73L137.56,156.5L133,154.11L124.55,144.73L121.89,139.55L121.95,136.76L125.37,136.32L129.82,139.45ZM331.41,284.96L335.33,287.93L337.79,291.54L334.18,294.09L331.76,293.16L327.53,288.91L323.19,288.26L324.34,285.06ZM374.44,286.32L368.35,292.64L363.29,294.58L361.38,290.84L362.74,287.35L365.79,284.63L369.41,283.13L373.72,280.67ZM303.25,277.41L300.75,280.54L298.33,278.71L298.44,275.65L301.53,273.34ZM355.73,277.39L345.82,280.24L340.53,280.6L330.24,278.24L331.39,275.73L337.47,273.7L344.32,277.05L348.88,275.83L351.28,277.52L354.37,275.31ZM317.18,274.47L323.53,274.67L323.35,278.76L316.3,279.66L306.45,282.22L304.19,281.3L304.98,276.6L307.93,274.95L311.32,275.55L316.26,272.53ZM293.42,272.85L295.42,275.35L291.11,279.23L285.13,272.5ZM490.62,274.03L488.46,275.34L483.37,273.92L486.66,267.75L489.29,265.74L493.39,265.27L495.01,268.3ZM429.24,271.31L427.31,269.97L429.11,266.06L432.82,265.74ZM280.44,262.43L277.17,263.56L271.17,262.78L272.22,260.4L281.7,260.12ZM457.89,255.86L456.08,259.55L453.57,259.1L454.92,253.21ZM225.71,251.54L228.11,253.6L233.46,254.09L236.44,259.31L251.3,260.86L254.24,256.15L257.7,258.11L261.01,257.9L265.54,260.33L269.39,260.66L271.16,266.87L274.93,268.52L282.02,267.67L285.03,270.28L284.16,275.34L285.56,278.95L274.56,274.16L269.56,275.37L259.65,274.34L252.05,272.8L247.37,270.23L241.03,268.38L236.43,268.01L233.87,269.29L229.35,268.57L224.11,266.07L218.56,265.51L217.82,261.92L209.12,259.22L214.64,250.62L220.97,252.44L222.96,250.51ZM460.17,248.56L459.95,253.16L457.15,254.79L456.69,248.62ZM356.81,244.22L354.69,239.24L357.61,237.76ZM393.83,222.58L396.87,225.59L396.8,227.99L392.07,229.87L388.11,227.71L386.65,223.4ZM418.69,220.38L424,221.6L427.92,227.36L427.35,230.21L419.31,224.95L416.04,226.2L411.8,224.94L407.07,225.83L404.26,223.53L405.35,220.38L415.91,219.63ZM234,221.69L228.87,223.79L229.47,217.4L232.96,217.71ZM377.94,208.87L373.16,211.84L372.9,208.69ZM468.01,207.74L474.23,208.37L474.12,210.39ZM215.74,208.51L218.35,216.4L220.98,218.77L219.76,222.26L215.12,219.97L213.43,213.59L207.86,212.21L211.82,207.1ZM405.24,208.42L400.16,209.1L400.95,205.17ZM156.74,209.58L154.27,208.46L151.99,203.83L154.3,201.03L157.65,208.1ZM467.34,198.42L471.71,199.16L471.2,203.06Z" class="land" id="ID" title="Indonesia"/>
    <path d="M537.46,60.36L536.41,58.67L537.46,57.7Z" class="land" id="GU" title="Guam"/>
    <path d="M661.04,124.37L659.92,124.5L659.38,123.07L660.74,123.01Z" class="land" id="FM" title="Federated States of Micronesia"/>
    <path d="M813.61,364.46L815.53,367.25L815.07,371.52L807.69,373.25L803.71,371.48L803.78,369.36L807.79,365.35ZM831.06,352.48L828.28,355.25L829.09,358.22L820.91,359.77L819.86,357.09L827.08,353.29Z" class="land" id="FJ" title="Fiji"/>
    <path d="M208.49,296.06L208.18,296.77L207.27,296.26L208.37,295.44Z" class="land" id="CX" title="Christmas Island"/>
    <path d="M131.23,312.84L131.32,312.89L131.46,312.84L131.51,312.9L131.29,313Z" class="land" id="CC" title="Cocos (Keeling) Islands"/>
    <path d="M449.76,597.87L451.74,597.7L457.84,601.59L467.64,599.99L472.85,597.8L474.52,599.45L468.73,610.24L462.86,615.5L460.06,621.25L457.06,618.66L448.89,625.72L442.79,625.09L442.26,615.21L444.84,610.04L444.39,604.11L445.63,599.78ZM413.98,547.73L411.37,551.08L405.98,550.66L406.23,547.83L412.48,546.27ZM468.4,328.97L469.18,333.83L464.76,333.19L465.85,329.57ZM419.8,304.84L425.55,302.99L427.56,305.44L421.96,310.3L419.58,308.48ZM526.05,310.59L524.99,314.05L526.99,317.4L527.36,325.38L526.57,328.34L527.35,334.39L528.9,335.52L533.63,333.22L534.68,335.81L539.34,340.29L538.26,345.6L538.77,351.36L537.83,354.85L540.55,361.45L541.29,367.08L539.15,373.44L541.08,376.23L541.15,381.46L545.97,384.59L548.36,384.45L551.39,389.34L557.47,393.53L556.12,396.43L559.12,401.86L559.81,414.98L563.68,412.22L566.49,416.16L568.31,416.33L566.46,425.13L568.1,428.38L573.11,432.54L573.79,436.5L575.88,438.54L577.69,444.83L578.05,450.15L576.26,453.54L573.51,462.43L573.61,472.88L571.61,479.02L567.88,483.37L564.98,489.38L560.39,496.09L556.21,504.79L550.58,510.89L548.23,514.82L540.94,519.43L536.37,523.89L531.38,530.69L528.01,533.36L521.9,542.14L514.93,548.67L508.32,558.75L504.83,565.55L498.44,568.26L490.03,568.55L481.24,572.41L474.78,576.82L466.29,579.19L466.29,576.85L459.53,572.32L447.64,578.38L442.03,574.72L435.81,572.93L432.98,573.84L428.19,570.51L425.01,562.73L428.18,556.93L428.16,551.29L425.79,547.24L419.25,546.47L424.33,540.61L425.23,538.01L424.4,532.09L417.23,541.8L410.31,542.76L412.69,539.53L415.74,539.5L419.61,532L425.46,526.2L426.29,522.42L422.99,522.35L419.63,526.7L411.53,530.69L401.57,539.77L401.92,529.47L400.95,523.69L397.59,522.07L397.51,517.91L399.34,515.91L395.11,512.26L389.46,510L384.85,510.5L381.93,507.4L377.91,505.4L359.25,507.46L350.83,511.1L344.05,513.07L332.51,513.4L315.07,521.71L308.72,528.76L304.6,530.27L301.46,529.31L296.03,530.31L290.57,528.67L277.48,530.15L272.85,534.07L267.97,535.18L260.06,540.23L255.2,541.35L247,540.25L243.38,538.33L242.2,535.64L237.31,532.95L240.73,526.84L243.81,525.72L246.28,522.34L251.14,507.38L249.57,498.53L249.82,492.62L251.77,484.8L250.77,475.9L248.94,471.29L249.74,463.96L248.04,456.08L249.98,446.76L253.97,453.39L255.03,449.02L251.74,434.88L254.45,427.87L256.84,424.73L257.9,416.94L261.65,409.97L264.33,413.98L269.61,407.95L275.12,405.51L280.69,400.91L287.28,397.16L293.02,397.83L300.37,394.38L305.23,393.25L308.72,390.59L312.69,391.02L324.29,387.3L330.53,381.74L334.56,375.47L338.88,370.4L339.37,363.88L347.69,355.15L350.61,365.59L353.81,359.44L352,355.69L361.81,351.94L360.73,348.4L365.53,342.46L369.28,340.31L369.08,338.02L373.83,334.77L376.55,335.83L377.87,332.05L381.69,332.51L385.12,328.37L391.01,332.85L394.66,338.39L405.07,340.2L407.79,338.77L405.21,334.82L408.63,330.72L410.31,326.67L414.26,323.98L413.96,320.55L416.29,317.87L420.74,316.24L422.44,312.91L425.66,313.78L433.66,313.41L435.63,312.13L437.23,306.12L440.21,305.6L441.27,308.11L447.23,309.37L449.84,311.11L454.07,310.88L457.91,313.24L463.18,310.11L465,315.23L469.52,310.62L472.46,314.51L468.38,318.83L468.55,321.01L462.45,324L462.23,329.03L460.81,332.44L455.8,338.46L456.47,340.86L461.52,344.87L465.59,349.76L467.46,349.6L472.77,353.12L476.46,357.95L482.59,359.76L483.79,364.03L489.7,367.76L493.88,366.98L496.99,364.89L501.76,357.24L504.47,351.5L508.07,341.42L508.84,328.9L511.13,323.55L512.53,315.92L515.68,310L518.76,300.57L521.51,298.19L524,304.15L523.63,309.26Z" class="land" id="AU" title="Australia"/>
  </g>
</svg>