<?xml version="1.0" encoding="UTF-8"?>
<svg xmlns="http://www.w3.org/2000/svg" width="840.33" height="661.2" viewBox="59.84 -3.1 840.33 661.2">
  <!-- Created using SVG Map Generator: dojo.amcharts.com/svg-map-generator -->
  <style>
    .land { fill: #831100; stroke: #000000; stroke-width: 1.1; }
  </style>
  <g id="polygons">
    <path d="M504.35,305.11L479.19,304.3L473.23,303.82L476.25,298.02L481.48,297.09L484.78,293.44L485.36,293.53L482.22,297.25L488.09,297.84L488.08,293.72L496.53,296.23L501.37,296.29L504.27,299.05ZM706.87,124.04L719.57,127.68L715.28,131.36L707.38,132.79L702.29,126.74ZM792.11,467.23L790.78,470.44L786.09,475.6L779.53,474.25L773.01,467.66L769.47,466.62L760.44,462.47L760.76,458.89L756.61,458.17L751.14,455.18L747.34,455.27L741.99,457.68L739.76,455.3L724.46,449L715.71,449.07L705.31,444.91L700.05,444.44L698.56,446.42L683.66,434.98L677.82,433.26L673.84,429.59L669.2,429.11L663.24,421.83L670.37,420.69L669.62,418.22L672.04,412.5L674.42,411.29L671.11,404.45L683.65,398.09L675.22,397.18L672.63,398.28L672.37,392.19L677.98,388.34L686.53,388.48L687.92,383.37L683.36,373.4L686.79,370.91L682.99,366.11L676.21,362.45L673.7,362.85L666.52,359.92L664.69,361.62L657.3,355.3L646.36,356.99L636.81,353.65L634.73,347.19L623.84,343.76L621.47,339.06L624.01,337.77L616.22,330.58L604.11,331.04L602.27,333.51L597.13,333.68L594.85,330.99L591.51,319.77L598.88,321.09L603.92,317.99L593.45,308.9L589.35,307.14L585.66,301.44L582.23,299.75L583.44,296.39L581.68,289.89L574.57,286.46L567.6,288.46L566.06,285.29L560.43,285.24L553.78,282.75L552.58,277.74L549.1,273.75L548.16,268.19L543.48,265.58L546.73,261.72L543.38,256.44L541.91,250.76L545.99,241.59L545.52,238.67L554.11,237.4L554.51,233L549.71,227.92L541.87,228.83L557.44,216.67L569.94,204.45L571.49,200.67L567.49,196.84L556.08,191.16L559.42,187.24L555.03,183.18L553.79,178.5L549.09,176.12L548.61,168.47L551.9,167.81L549.23,163.06L539.93,152.9L546.19,146.29L539.72,140.41L533.63,138.96L531.07,135.57L534.19,129.53L548.94,120.96L554.24,122.01L558.18,119.05L567,121.31L562.81,124.37L574.63,126.28L593.9,127.61L611.73,133.26L637.69,143.04L643.23,144.39L648.05,154.57L643.29,158.94L633.23,162.58L625.45,163.36L598.68,159.53L591.94,157.04L570.11,153.53L581.47,160.4L589.43,162.62L593.61,165.68L591.43,171.13L596.09,175.91L597.82,180.9L605.37,183.04L612.93,187.45L623.28,189.69L628.42,187.18L626.51,183.72L619.25,182.68L612.08,177.54L614.38,173.74L620.4,174.49L625.41,177.17L642.16,180.7L645.62,175.78L640.18,171.67L639.59,168.78L646.33,164.54L652.86,162.68L658.15,158.1L675.96,161.39L677.97,156.35L674.75,151.42L669.69,149.64L671.06,141.17L667.58,134.88L684,135.66L693.32,142.84L683.4,143.89L679.18,147.09L690.68,154.26L697.06,154.58L705.31,152.05L704.77,145.87L713.08,144.19L727.94,137.14L741.97,134.39L751.23,129.82L755.96,138.53L760.99,138.01L772.35,133.75L782.28,134.82L789.91,131.02L795.9,129.73L807.2,136.32L813.58,129.92L804.02,123.12L810.09,120.19L831.32,122.17L861.69,130.36L867.21,131.2L876.99,135.76L886.8,149.29L883.33,155.76L874.18,162.12L863.9,167.4L852.34,176.86L838.34,184.16L846.87,223.13L849.15,242.13L847.03,253.39L843.73,261.58L838.43,268.03L838.39,273.85L847.01,278.13L849.76,283.44L846.12,290.14L837.71,291.74L827.29,292.68L839.25,303.7L847.41,309.82L858.41,302.91L865.89,305.71L869.8,310.34L866.26,314.05L864.07,319.98L866.52,327.24L873.71,329.09L879.44,336.36L884.29,339.42L894.05,342.09L897.06,344.81L896.49,349.53L889.69,352.06L882.34,350.32L881.7,353.11L871.97,351.67L865.4,346.93L860.09,346.57L856.83,349.17L851.9,346.92L846.86,347.5L841.33,352.85L838.76,352.86L829.26,347.77L826.92,350.57L822.01,346.27L813.76,341.58L806.1,341.58L803.06,339.04L796.49,341.56L787.59,338.42L783.49,344.04L776.63,346.68L775.58,349.65L771.17,352.86L770.81,356.04L773.24,360.43L769.66,362.8L760.74,355.73L757.22,357.08L755.04,362.49L754.48,368.75L757.37,372.22L755.01,376.01L755.65,381.11L759.49,382.76L761.3,387.14L765.65,389L772.22,389.77L777.9,395.29L783.56,402.41L780.54,405.13L787.03,407.97L779,415.44L771.89,417.74L770.23,425.31L766.31,430.14L766.87,433.24L772.39,436.24L776.96,445.24L777.63,451.5ZM798.76,121.66L792.01,119.73L786.1,115.55L789.75,113.34L804.15,118.95ZM719.02,95.6L726.84,93.09L731.98,82.32L741.52,81.35L754.86,83.32L753.88,87.77L749.24,91.3L751.17,97.09L760.21,103.58L769.44,108.21L773.15,111.96L750.84,110.95L742.7,109.45L736.46,101.42L723.44,101.97L719.04,98.83ZM838.81,46.89L835.23,50.73L821.7,53.85L785.13,60.81L778.53,66.27L766.09,69.42L767.17,73.36L758.55,81.53L754.41,82.28L741.75,80.59L736.3,81.7L729.91,77.23L736.36,75.16L741.02,68.05L746.99,64.57L749.73,60.09L762.02,55.18L778.32,52.44L778.64,50.76L793.28,51.23L814.57,47.36L825.71,43.34L833.83,44.09ZM738.63,8.3L739.59,6.49L754.52,5.8L759.99,8.31L753.34,10.14ZM660.33,9.24L659.97,6.45L671.45,5.6L679.61,7.67L659.59,10.59L651.06,12.98L642.49,11.23ZM699.63,6.76L700.37,3.78L725.14,6.71L710.79,8.13ZM707.58,3.13L715.92,0L726.65,1.36L721.18,3.61Z" class="land" id="RU" title="Russia"/>
    <path d="M223.71,542.83L223.66,543.5L223.46,543.32L223.48,543.06Z" class="land" id="GI" title="Gibraltar"/>
    <path d="M323.41,342.8L320.22,345.09L314.66,342.92ZM323.41,342.8L317.01,341.94L325.72,331.03L328.37,323L330.91,322.89L332.03,330.03L336.33,327.4L334.32,321.04L340.99,317.09L348.41,316.66L352.24,318.67L351.04,330.12L348.32,336.1L340.48,338L343.03,341.49L340.23,347.95L341.3,350.95L339.33,350.9L338.29,350.64L339.5,346.14L336.26,344.23L326.16,341.68Z" class="land" id="NL" title="Netherlands"/>
    <path d="M412,466.52L411.91,466.54L411.91,466.42L411.99,466.41Z" class="land" id="VA" title="Vatican City"/>
    <path d="M672.63,398.28L665.79,398.5L664.04,400.55L653.69,403.92L649.11,404.37L639.91,410.04L642.62,416.44L648.89,421.55L654.95,419.69L659.24,420.47L658.01,424.77L652.7,425.56L648.41,424.34L644.98,428.22L641.12,428.16L633.51,433.68L628.45,431.49L628.56,424.35L621.53,421.06L617.19,420.34L628.16,413.22L622.98,410.23L615.67,411.43L610.82,409.12L609.4,403.27L597.57,405.31L595.39,411.15L592.78,414.27L586.71,416.68L588.46,422.22L583.24,420.35L578.72,422.56L572.72,419.73L579.38,411.87L578.57,406.98L580.66,405.64L588.06,407.95L587.68,401.7L584.32,399.94L583.62,396.25L579.29,393.53L578.94,387.99L574.26,384.91L569.64,384.36L561.21,380.26L552.09,383.09L547.85,386.55L540.85,387.62L535.3,390.12L531.79,387.35L527.74,387.68L517.56,385.36L514.42,387.14L506.24,381.2L509.5,372.56L510,366.53L519.55,355.74L522.13,355.32L522.83,349.74L516.83,341.12L523.85,336.66L539.36,336.07L551.75,338.13L553.26,339.9L566.64,340.8L571.86,339.85L574.39,342.85L585.84,340.12L589.44,334.38L597.13,333.68L602.27,333.51L604.11,331.04L616.22,330.58L624.01,337.77L621.47,339.06L623.84,343.76L634.73,347.19L636.81,353.65L646.36,356.99L657.3,355.3L664.69,361.62L666.52,359.92L673.7,362.85L676.21,362.45L682.99,366.11L686.79,370.91L683.36,373.4L687.92,383.37L686.53,388.48L677.98,388.34L672.37,392.19Z" class="land" id="UA" title="Ukraine"/>
    <path d="M718.49,471.56L728.72,472.59L731.85,470.95L739.67,477L743.47,482.14L742.33,485.29L745.54,490.76L750.87,491.16L756.65,495.64L757.28,496.34L753.2,499.38L749.4,499.97L755.78,513.56L754.3,519.53L758.37,521.71L759.1,525.84L761.74,527.78L756.84,531.94L755.62,528.94L748.11,528.38L739.93,526.69L736.95,529.93L734.67,527.96L726.93,530.46L718.22,530.35L711.28,533.97L704.43,535.9L698.06,535.74L691.54,532.96L683.84,536.41L675.22,534.29L674.45,538.89L670.98,547.26L666.86,540.87L670.39,536.2L668.51,532.84L663.48,537.03L653.14,534.53L647.56,540.45L644.24,542.58L634.74,544.52L630.05,542.55L625.75,537.86L618.19,534.31L610.49,533.45L609.49,540.86L601.12,542.91L594.94,539.7L593.45,535.74L587.35,534.27L583.32,531.25L574.91,531.39L576.47,528.33L573.08,526.45L571.22,522.48L572.53,518.6L566.39,515.67L568.09,513.35L566.64,508.86L569.09,506.5L565.07,501.11L566.28,497.51L558.81,498.77L558.9,491.83L564.29,486.38L570.01,485.64L572.21,487.45L580.71,486.34L585.81,484.6L591.54,480.95L587.89,478.32L590.5,475.41L596.91,476.43L601.34,475.81L606.41,477.29L611.07,477L612.89,474.18L621.19,468.75L632.04,464.94L646.53,465.74L649.04,464.34L652.68,468.76L660.69,469.38L662.49,472.77L666.26,474.94L668.91,473.61L672.27,475.98L686.62,479.43L697.32,477.01L706.45,478.94L713.29,475.62ZM575.69,465.59L579.88,472.24L587.7,475.38L585.13,478.77L578.57,477.35L571.61,478.78L569.43,482.57L557.33,483.58L556.49,482.04L559.29,479.02L558.93,475.26L561.82,473.1L558.22,468.93L560.99,465.64L567.98,464.12L570.72,466.22Z" class="land" id="TR" title="Türkiye"/>
    <path d="M498.24,166.37L488.9,167.18L475.62,170.99L476.16,174.28L472.73,177.99L476.39,183.02L470.8,189.04L455.92,196.49L451.14,200.55L446.01,201.33L443,214.33L440.54,216.31L442.76,226.84L449.51,228.18L455.59,232.25L460.15,238.27L450.44,244.19L454.52,246.16L446.98,249.23L439.83,254.43L441.21,257.13L439.63,262.07L440.21,271.26L436.01,281.75L424.32,282.51L419.15,286.62L420.66,290.42L410.9,292.69L406.6,291.87L407.26,288.35L403.14,282.81L405.54,276.84L400.84,273.26L390.52,258.31L386.95,247.64L389.2,247.05L392.88,243.96L391.51,240.28L398.67,234.03L399.32,229.86L396.06,223.2L401.22,218.99L394.14,214.57L395,207.81L392.98,204.16L393.56,199.3L391.29,195.85L396.76,188.19L402.44,186.61L408.53,187.32L409.12,182.03L405.12,180.65L411.86,172.23L411.51,162.61L419.72,160.57L418.96,158.44L427,151.93L424.08,147.68L433.77,139.94L439.18,141.52L442.38,134.73L456.66,137.06L461.29,129.36L474.2,135.2L481.32,136.67L489.66,141.64L489.08,147.4L494.88,154.75L492.92,158.55ZM463.72,261.78L461.38,263.38L460.88,269.1L457.1,271.07L455.08,265.23L458.57,261.85Z" class="land" id="SE" title="Sweden"/>
    <path d="M450.92,406L442.13,409.9L442.32,414.7L438.82,416.03L439.69,419.51L433.39,418.96L424.62,420.01L421.45,418.85L422.86,417.93L419.02,408.37L421.96,405.73L430.3,407.08L435.24,404.34L445.01,403.67L446.24,401.25Z" class="land" id="SI" title="Slovenia"/>
    <path d="M509.5,372.56L506.24,381.2L502.61,382.07L499.14,379.29L489.4,379.62L488.09,382.62L483.85,384.75L472.72,386.45L472.25,389.22L462.45,389.44L455.95,386.38L452.63,380.73L453.39,378.69L455.52,375.3L461.27,374.95L464.96,370.17L471.47,366.9L477.53,365.78L481.64,371.01L489.64,368.44L499.96,368.17Z" class="land" id="SK" title="Slovakia"/>
    <path d="M489.64,411.11L495.53,415.8L495.82,419.28L503.65,424.03L502.83,427.34L510.55,431.64L514.86,432.34L517.27,435.65L514.58,438.68L516.62,445.96L521.34,449.48L516.4,454.04L517.45,459.34L515.7,461.02L507.57,461.9L509.11,456.32L505.23,455.24L501.37,450.75L496.91,451.51L494.19,454.23L485.51,449.16L481.47,444.92L484.36,442.68L480.26,434.8L481.83,427.49L478.19,427.35L478.02,418.72L476.05,413.42L482.26,410.5Z" class="land" id="RS" title="Serbia"/>
    <path d="M411.23,440.07L410.28,439.64L410.71,439.01L411.5,439.39Z" class="land" id="SM" title="San Marino"/>
    <path d="M572.72,419.73L578.72,422.56L583.24,420.35L588.46,422.22L587.58,427.68L582.43,428.82L578.95,434.89L579.15,442.17L573.45,441.11L571.49,438.94L562.93,436.57L554.09,438.68L547.05,443.11L523.11,440.44L517.27,435.65L514.86,432.34L510.55,431.64L502.83,427.34L503.65,424.03L495.82,419.28L495.53,415.8L489.64,411.11L498.78,408.55L508.72,389.99L514.42,387.14L517.56,385.36L527.74,387.68L531.79,387.35L535.3,390.12L540.85,387.62L547.85,386.55L552.09,383.09L555.93,384.44L560.36,391.14L568.92,399.75L571.51,406.63L570.76,412.88Z" class="land" id="RO" title="Romania"/>
    <path d="M201.7,529.26L197.05,531.57L188.89,530.03L186.69,525.9L186.03,511.49L180.15,508.58L181.66,501.69L187.5,490.16L189.8,478.03L188.43,469.78L188.91,465.96L194.91,463.41L197.89,466.71L203.31,467.38L211.61,465.94L212.32,469.51L215.75,471.37L208.03,478.3L209.06,487.14L206.86,488.93L206.46,495.5L202.06,497.86L206.1,506.24L202.79,512.22L204.33,518.23L200.79,523.84Z" class="land" id="PT" title="Portugal"/>
    <path d="M473.23,303.82L479.19,304.3L504.35,305.11L511.42,307.79L512.03,310.36L517.39,321.9L517.52,326.51L511.69,331.69L515.91,333.65L516.83,341.12L522.83,349.74L522.13,355.32L519.55,355.74L510,366.53L509.5,372.56L499.96,368.17L489.64,368.44L481.64,371.01L477.53,365.78L471.47,366.9L468.33,362.15L461.31,360.95L453.6,355.73L449.14,359.34L441.87,352.73L435.13,350.16L429.63,349.56L431.34,344.51L426.67,337.11L427.95,333.93L426.21,328.24L421.03,323.79L423.49,318.66L421.54,313.02L420.97,311.23L420.87,310.23L439.93,305.94L443.3,302.63L449.98,300.42L460.22,299.06L464.11,304.18L467.21,305.21Z" class="land" id="PL" title="Poland"/>
    <path d="M443.17,11.7L454.86,10.29L489.64,12.54L492.96,14.91L482.12,19.68L469.34,21.68L444.67,19.73L427.26,16.28L423.73,13.47ZM411.89,14.91L426.49,18.08L431.24,22.04L442.06,22.31L450.18,26.08L437.6,27.23L428.13,33.12L427.3,38.14L422.65,39.38L416.49,47.71L396.72,41.04L393.54,38.91L400.56,36.47L390.2,33.09L400.5,31.87L397.3,29.27L385.72,31.01L374.24,26.31L369.32,22.31L365.91,15.94L380.65,16.14L385.97,18.94L404.69,17.03ZM452.21,27.49L465.47,33.45L474.63,34.38L472.35,38.39L464.48,40.62L458.03,38.35L453.6,34.2L441.51,28.65Z" class="land" id="SJ" title="Svalbard and Jan Mayen"/>
    <path d="M447.77,117.79L450.84,118.87L444.43,123.25L440.37,121.13ZM433.27,123.06L437.73,127.54L429.27,128.22ZM548.94,120.96L534.19,129.53L536.35,124.44L534.21,122.21L522.48,117.84L510.99,119.48L507.08,122.42L506.15,129.88L499.89,134.38L489.95,131.97L485.6,133.75L477.47,132.94L469.62,126.72L461.29,129.36L456.66,137.06L442.38,134.73L439.18,141.52L433.77,139.94L424.08,147.68L427,151.93L418.96,158.44L419.72,160.57L411.51,162.61L411.86,172.23L405.12,180.65L409.12,182.03L408.53,187.32L402.44,186.61L396.76,188.19L391.29,195.85L393.56,199.3L392.98,204.16L395,207.81L394.14,214.57L401.22,218.99L396.06,223.2L399.32,229.86L398.67,234.03L391.51,240.28L392.88,243.96L389.2,247.05L383.84,245.25L372.48,248.16L359.15,257.98L348.12,259.46L335.52,253.33L333.64,250.84L336.74,247.99L336.5,243.19L329.79,244.73L331.28,239.66L329.46,237.34L330.35,228.43L328.48,226.76L326.98,214.69L332.37,207.51L339.8,203.93L348.4,204.04L345.67,199.81L355.64,198.23L358.09,192.97L369.92,191.91L369.85,189.08L377.24,182.57L383.02,179.5L383.95,176.85L391.03,173.66L391.69,169.13L397.57,163.89L398.2,157.87L411.84,146.84L411.87,143.29L416.12,140.34L422.55,138.84L427.16,134.01L433.4,132.04L439.1,128.01L440.31,124.42L446.25,123.45L447.76,121.36L455.1,119.84L464.57,119.77L466.14,116.58L476.87,114.35L480.5,117.39L491.19,110.7L492.65,107.39L502.47,109.03L517.65,106.39L531.09,108.94L548.37,115.47L537.49,118.79L539.73,121.58Z" class="land" id="NO" title="Norway"/>
    <path d="M481.47,444.92L485.51,449.16L494.19,454.23L491.54,457.94L487.17,456.86L483.69,462.89L484.63,466.91L479.56,461.88L475.43,459.45L474.46,457.78L474.16,452.37L478.85,445.4Z" class="land" id="ME" title="Montenegro"/>
    <path d="M438.33,546.97L436.95,547.38L436.02,546.71L437,545.58Z" class="land" id="MT" title="Malta"/>
    <path d="M515.7,461.02L521.24,465.26L523.32,468.92L522.8,473.96L518.58,476.85L512.64,477L509.16,480.16L502.71,480.41L499.94,479.37L496.61,471.51L497.49,466.84L502.37,462.91L507.57,461.9Z" class="land" id="MK" title="North Macedonia"/>
    <path d="M572.72,419.73L570.76,412.88L571.51,406.63L568.92,399.75L560.36,391.14L555.93,384.44L552.09,383.09L561.21,380.26L569.64,384.36L574.26,384.91L578.94,387.99L579.29,393.53L583.62,396.25L584.32,399.94L587.68,401.7L588.06,407.95L580.66,405.64L578.57,406.98L579.38,411.87Z" class="land" id="MD" title="Moldova"/>
    <path d="M358.72,442.06L358.1,442.31L358.46,441.79Z" class="land" id="MC" title="Monaco"/>
    <path d="M543.48,265.58L548.16,268.19L549.1,273.75L552.58,277.74L553.78,282.75L548.88,287.04L543.73,286.64L539.57,288.68L521.92,279.57L514.58,281.24L511.49,280.43L494.67,279.47L485.1,283.66L484.27,274.29L486.68,271.89L489.49,265.05L497.17,263.16L508.87,272.46L515.55,268.08L513.86,261.35L521.06,258.98L529.88,261.75L535.62,265.54Z" class="land" id="LV" title="Latvia"/>
    <path d="M342.77,359.04L346.63,363.19L345.31,367.65L339.68,366.54L339.09,361.63Z" class="land" id="LU" title="Luxembourg"/>
    <path d="M539.57,288.68L536.66,296.99L533.72,298.04L531.65,305.42L524.6,309.93L512.03,310.36L511.42,307.79L504.35,305.11L504.27,299.05L501.37,296.29L496.53,296.23L488.08,293.72L485.1,283.66L494.67,279.47L511.49,280.43L514.58,281.24L521.92,279.57Z" class="land" id="LT" title="Lithuania"/>
    <path d="M379.34,398.72L378.39,398.66L378.69,395.94Z" class="land" id="LI" title="Liechtenstein"/>
    <path d="M507.57,461.9L502.37,462.91L497.49,466.84L496.29,462.22L491.54,457.94L494.19,454.23L496.91,451.51L501.37,450.75L505.23,455.24L509.11,456.32Z" class="land" id="XK" title="Kosovo"/>
    <path d="M260.76,370.51L258.55,371.22L258.72,370.05Z" class="land" id="JE" title="Jersey"/>
    <path d="M447.66,515.38L443.07,525.53L445.45,531.47L443.71,535.81L437.07,534.34L433.03,530.27L430.48,530.31L414.31,520.71L423.91,515.9L427.54,518.3L436.33,517.71L439.89,516.02ZM382.95,479.99L384.96,485.06L382.98,502.78L377.57,501.81L375.84,506.16L370.79,502.26L370.93,487.81L367.81,483.04L379.12,475.74ZM421.96,405.73L419.02,408.37L422.86,417.93L417.43,415.52L415.71,417.27L408.03,419.78L407.66,422.46L410.92,426.06L408.23,429.28L410.09,435.83L413.31,438.85L422.69,444.43L427.98,456.06L437.41,464.48L440.68,466.05L449.04,465.98L449.94,472.65L461.74,477.6L471.08,482.99L477.18,490.3L472.99,492.53L470.45,487.97L460.38,485.61L456.63,493.56L457.52,496.5L463.21,499.93L464.15,505.02L457.8,508.79L457.88,512.86L452.99,519.09L449.44,519.12L451.54,508.82L453.91,508.2L451.63,500.29L447.65,491.83L439.6,488.52L437.34,482.82L434.13,483.29L430.22,480.72L426.05,475.3L419.25,475.19L414.28,472.2L403.35,461.37L398.28,458.1L393.25,452.8L385.78,438.51L377.74,434.58L372.25,433.22L365.35,439.85L359.28,441.84L361.08,437.68L353.62,435.09L354.12,429.35L349.8,424.09L355.13,420.37L351.37,414.95L353.56,413.5L363.54,412.32L368.23,409.31L373.53,414.75L376.37,408.78L383.4,407.8L388.39,401.23L394.3,402.11L396.44,399.79L405.8,400.31L408.35,403.35ZM411.23,440.07L411.5,439.39L410.71,439.01L410.28,439.64Z" class="land" id="IT" title="Italy"/>
    <path d="M142.03,161.47L149.36,163.88L148.53,166.95L158.51,170.07L155.72,177.36L144.49,184L134.81,186.17L129.22,189.07L118.28,190.87L110.19,194.49L96.26,192.73L87.27,188.25L74.68,189.4L82.36,185.07L81.8,181.43L76.01,175.44L82.93,170L75.01,168.98L65.71,171L62.94,170.07L68.38,163.31L80.76,159.14L89.88,165.55L88.07,170.22L91.93,170.57L98.14,167.37L98.63,163.73L112.99,162.16L131.12,162.59L133.38,158.94L138.43,158.16Z" class="land" id="IS" title="Iceland"/>
    <path d="M220.13,308.48L221.55,323.18L215.97,332.56L206.32,333.71L204.9,335.22L193.24,340.26L188.38,341.37L185.66,338.93L177.81,336.64L182.19,333.22L186.12,327.85L189.28,321.01L184.56,317.25L183.15,306.13L196.66,305.23L195.47,301.03L200.51,295.19L210.63,292.61L210.78,295.87L201.64,304.39L208.98,308.07L213.2,304.89L215.88,308.86Z" class="land" id="IE" title="Ireland"/>
    <path d="M237.89,307.27L234.6,308.1L237,304.86Z" class="land" id="IM" title="Isle of Man"/>
    <path d="M506.24,381.2L514.42,387.14L508.72,389.99L498.78,408.55L489.64,411.11L482.26,410.5L476.05,413.42L471.4,415.57L466.51,415.53L459.55,412.58L450.92,406L446.24,401.25L449.8,399.38L449.28,394.68L452.18,390.53L455.42,390.26L455.95,386.38L462.45,389.44L472.25,389.22L472.72,386.45L483.85,384.75L488.09,382.62L489.4,379.62L499.14,379.29L502.61,382.07Z" class="land" id="HU" title="Hungary"/>
    <path d="M466.11,453.32L474.46,457.78L475.43,459.45ZM476.05,413.42L478.02,418.72L478.19,427.35L474.41,424.61L465.61,424.61L452.21,422.79L449.94,425.52L444.56,423.28L444.38,428.71L448.71,432.54L449.8,435.95L465.53,451.4L465.21,452.77L457.68,446.78L447.43,443.3L438.42,435.4L439.85,433.73L435.7,429.49L434.99,424.57L429.93,421.14L425.96,427.79L422.28,424.21L421.45,418.85L424.62,420.01L433.39,418.96L439.69,419.51L438.82,416.03L442.32,414.7L442.13,409.9L450.92,406L459.55,412.58L466.51,415.53L471.4,415.57Z" class="land" id="HR" title="Croatia"/>
    <path d="M538.83,551.21L542.16,550.41L543.97,553.5L548.33,552.69L556.6,554.28L559.68,556.46L549.66,559.24L545.8,556.22L535.92,554.43ZM530.67,505.54L538.26,509.37L534.92,512.96L529.09,507.64ZM562.13,500.61L563.18,505.36L557,503.14ZM556.49,482.04L554.41,480.49L546.29,478.49L543.16,480.31L539.72,479.11L533.86,484.46L531.95,488.72L528.22,488.82L520.69,485.12L520.78,491.2L524.68,496.62L525.8,504.59L523.99,507.65L529.25,509.5L537.28,514.65L538.82,522.18L533.43,518.17L529.34,518.86L529.62,527.2L525.31,526.4L529.23,534.65L524.22,534.59L518.31,531.26L516.56,535.16L512.92,530.57L512.38,524.43L507.45,519.39L509.96,515.69L514.34,513.94L525.1,518.56L528.45,517.34L520.61,512.47L510.58,514.03L506.68,513.19L502.7,507.56L502.54,504.88L497.15,500.64L493.61,495.55L500.19,490.13L503.62,482.95L502.71,480.41L509.16,480.16L512.64,477L518.58,476.85L522.8,473.96L530.33,473.29L534.6,471.43L547.54,475.19L556.69,473.31L558.22,468.93L561.82,473.1L558.93,475.26L559.29,479.02Z" class="land" id="GR" title="Greece"/>
    <path d="M255.8,367.11L255.44,367.96L254.45,367.45Z" class="land" id="GG" title="Guernsey"/>
    <path d="M769.47,466.62L767.39,469.71L772.7,473.86L771.61,477.49L758.36,472.47L755.76,474.56L739.67,477L731.85,470.95L728.72,472.59L718.49,471.56L720.23,465.57L715.92,456.46L708.26,451.12L704.87,450.36L698.56,446.42L700.05,444.44L705.31,444.91L715.71,449.07L724.46,449L739.76,455.3L741.99,457.68L747.34,455.27L751.14,455.18L756.61,458.17L760.76,458.89L760.44,462.47Z" class="land" id="GE" title="Georgia"/>
    <path d="M380.46,454.53L381.52,463.46L378.02,473.32L373.94,470.63L372.54,457.9ZM339.68,366.54L345.31,367.65L349.38,371.42L356.63,371.53L363.64,373.84L360.78,378.21L358.46,385.62L358.98,391.75L352.81,395.26L343.49,406.93L350.67,407.09L353.56,413.5L351.37,414.95L355.13,420.37L349.8,424.09L354.12,429.35L353.62,435.09L361.08,437.68L359.28,441.84L358.72,442.06L358.46,441.79L358.1,442.31L349.07,449.73L345.15,451L337.69,448.94L334.01,446.09L330.39,447.03L323.46,444.14L315.25,449.41L313.13,453.07L314.88,459.47L302.52,460.5L299.08,458.52L296.16,457.29L288.49,454L287.81,456.06L280.76,456.06L278.06,454.27L267.75,451.17L262.46,446.58L265.7,444.52L268.26,431.41L270.19,415.07L269.4,408.45L262.83,405.8L260.06,401.94L260.5,398.98L248.94,390.42L241.4,388.57L237.2,388.76L234.03,385.35L236.51,381.69L233.22,379.45L248.41,375.56L253.83,379.5L256.35,378.05L266.59,378.14L265.17,370.88L262.45,364.67L268.49,364.71L269.68,368.48L279.54,369.66L284,367.51L283.08,364.42L293.74,360.62L296.79,356.81L297.03,351.09L300.34,347.87L306.46,346.51L309.68,351.44L323.18,357.42L323.27,361.11L328.1,360.56L330.29,363.32L336.83,366.9Z" class="land" id="FR" title="France"/>
    <path d="M219.82,208.5L216.21,210.1L214.85,207.81Z" class="land" id="FO" title="Faroe Islands"/>
    <path d="M534.19,129.53L531.07,135.57L533.63,138.96L539.72,140.41L546.19,146.29L539.93,152.9L549.23,163.06L551.9,167.81L548.61,168.47L549.09,176.12L553.79,178.5L555.03,183.18L559.42,187.24L556.08,191.16L567.49,196.84L571.49,200.67L569.94,204.45L557.44,216.67L541.87,228.83L536.65,228.8L522.16,231.28L517.71,232.97L504.61,235.74L495.69,234.39L493.19,230.97L482.12,228.1L480.84,223.62L482.15,216.12L478.28,211.35L478.81,208.55L475.87,203.79L485.04,194.12L493.46,188.71L501.72,181.43L503.74,178.08L510.72,175.64L509.59,170.16L498.24,166.37L492.92,158.55L494.88,154.75L489.08,147.4L489.66,141.64L481.32,136.67L474.2,135.2L461.29,129.36L469.62,126.72L477.47,132.94L485.6,133.75L489.95,131.97L499.89,134.38L506.15,129.88L507.08,122.42L510.99,119.48L522.48,117.84L534.21,122.21L536.35,124.44Z" class="land" id="FI" title="Finland"/>
    <path d="M545.99,241.59L541.91,250.76L543.38,256.44L546.73,261.72L543.48,265.58L535.62,265.54L529.88,261.75L521.06,258.98L513.86,261.35L515.01,255.41L507.74,255.33L504.79,251.67L503.76,245.11L511.67,241.73L521.64,241.14L522.04,239.71L536.24,242ZM496.36,252.13L503.01,253.82L492.73,258.34L491.49,253.89Z" class="land" id="EE" title="Estonia"/>
    <path d="M110.75,650.14L110.75,653.79L107.15,655L107.63,650.04ZM100.53,647.02L96.76,652.01L94.2,647.56ZM124.08,649.84L126.46,642.64L128.35,644.27L127.09,648.71ZM314.59,494.49L317.96,495.71L313.88,500.99L306.38,496.84L310.75,493.63ZM262.46,446.58L267.75,451.17L278.06,454.27L280.76,456.06L287.81,456.06L288.49,454L296.16,457.29L296.78,459.43L299.08,458.52L302.52,460.5L314.88,459.47L315.34,465.91L303.15,474.61L292.1,477.6L288.74,480.77L285.04,487.46L277.72,498.08L279.01,504.16L283.34,508.2L277.12,512.51L274.28,516.29L272.38,523.9L266.97,524.16L261.9,528.54L258.49,534.63L251.22,535.46L246.15,534.91L234.24,535.41L230.89,538.24L225.52,539.34L220.54,544.65L216.1,542.49L211.45,532.25L207.3,529.06L201.7,529.26L200.79,523.84L204.33,518.23L202.79,512.22L206.1,506.24L202.06,497.86L206.46,495.5L206.86,488.93L209.06,487.14L208.03,478.3L215.75,471.37L212.32,469.51L211.61,465.94L203.31,467.38L197.89,466.71L194.91,463.41L188.91,465.96L189.95,461.55L184.57,452.26L188.51,447.55L192.03,447.51L195.06,444.31L200.96,441.88L205.44,444.11L222.09,444.28L233.97,446.47L243.58,445.11L249.39,447.06L256.78,447.63Z" class="land" id="ES" title="Spain"/>
    <path d="M220.13,308.48L215.88,308.86L213.2,304.89L208.98,308.07L201.64,304.39L210.78,295.87L221.46,294.3L227.62,303.31L226.2,306.17ZM251.58,253.43L250.56,255.81L243.04,260.26L244.12,264.69L248.6,263.36L261.33,263.43L264.13,266L255.53,280.56L250.4,283.53L260.36,285.74L265.1,289.89L268.56,299.87L274.61,303.26L279.17,309.33L286.72,322.67L291.63,322.77L297.6,325.38L298.52,328.99L296.7,333.86L290.71,337.42L288.05,342.8L295.33,343.1L290.81,348.7L283.25,350.79L265.98,350.98L255.62,352.67L251.1,351.38L247.02,352.47L243.02,357.64L239.25,355.57L227.45,357.43L235.23,350.62L239.3,345.33L249.82,345.13L237.46,338.27L232.28,339.74L230.55,335.02L237.62,332.46L241.71,328.07L240.59,319.48L250.97,316.84L252.4,312.98L250.11,307.99L246.23,303.72L247.66,297.48L242.5,299.78L231.02,298.81L235.24,291.76L230.31,285.41L226.83,283.84L229.11,278.12L223.88,276.99L227.74,269.22L225.36,266.71L230.26,256.83L236.29,253.5L252.15,251.97Z" class="land" id="GB" title="United Kingdom"/>
    <path d="M384.65,289.39L386.36,295.36L378.57,294.99L377.09,290.57ZM403.21,287.21L400.03,291.19L398.95,299.34L394.79,294.69L391.2,294.47L387.82,288L399.54,283.05ZM376.37,299.22L365.87,298.24L365.04,291.79L360.24,289.52L360,276.98L364.09,270.73L373,269.22L376.69,264.92L382.3,266.56L380.3,272.12L380.44,276.81L385.95,278.04L386.21,280.85L381.07,281.88L379.99,286.21L374.49,290.86Z" class="land" id="DK" title="Denmark"/>
    <path d="M376.37,299.22L382.69,304.08L393.24,310.3L400.06,307.48L404.37,303.72L408.86,304.43L417.56,311.45L421.54,313.02L423.49,318.66L421.03,323.79L426.21,328.24L427.95,333.93L426.67,337.11L431.34,344.51L429.63,349.56L425.18,349.05L406.39,356.1L404.75,358.26L406.21,363.95L408.86,367.54L421.38,376.51L417.55,381.34L411.68,384.37L413.29,387.87L410.72,390.76L400.89,391.87L396.71,393.94L387.77,392.42L386.7,395.39L380.78,391.97L378.52,392.64L369.14,389.49L364.93,391.57L358.98,391.75L358.46,385.62L360.78,378.21L363.64,373.84L356.63,371.53L349.38,371.42L345.31,367.65L346.63,363.19L342.77,359.04L345.19,356.53L341.3,350.95L340.23,347.95L343.03,341.49L340.48,338L348.32,336.1L351.04,330.12L352.24,318.67L352.92,313.63L360.04,313.51L365.33,315.2L368.71,311.68L368.89,302.82L365.87,298.24Z" class="land" id="DE" title="Germany"/>
    <path d="M429.63,349.56L435.13,350.16L441.87,352.73L449.14,359.34L453.6,355.73L461.31,360.95L468.33,362.15L471.47,366.9L464.96,370.17L461.27,374.95L455.52,375.3L453.39,378.69L448.37,376.08L444.14,376.67L437.33,374.05L432.93,373.71L430.42,378.68L423.89,378.64L421.38,376.51L408.86,367.54L406.21,363.95L404.75,358.26L406.39,356.1L425.18,349.05Z" class="land" id="CZ" title="Czechia"/>
    <path d="M653.36,550.43L648.14,554.47L649.73,558.53L638.27,564.04L632.73,561.99L631.01,559L637.2,553.15L642.86,553.88Z" class="land" id="CY" title="Cyprus"/>
    <path d="M378.52,392.64L378.69,395.94L378.39,398.66L379.34,398.72L383.7,400.96L388.39,401.23L383.4,407.8L376.37,408.78L373.53,414.75L368.23,409.31L363.54,412.32L353.56,413.5L350.67,407.09L343.49,406.93L352.81,395.26L358.98,391.75L364.93,391.57L369.14,389.49Z" class="land" id="CH" title="Switzerland"/>
    <path d="M338.29,350.64L339.33,350.9L341.3,350.95L345.19,356.53L342.77,359.04L339.09,361.63L339.68,366.54L336.83,366.9L330.29,363.32L328.1,360.56L323.27,361.11L323.18,357.42L309.68,351.44L306.46,346.51L314.66,342.92L320.22,345.09L323.41,342.8L326.16,341.68L336.26,344.23L339.5,346.14Z" class="land" id="BE" title="Belgium"/>
    <path d="M553.78,282.75L560.43,285.24L566.06,285.29L567.6,288.46L574.57,286.46L581.68,289.89L583.44,296.39L582.23,299.75L585.66,301.44L589.35,307.14L593.45,308.9L603.92,317.99L598.88,321.09L591.51,319.77L594.85,330.99L597.13,333.68L589.44,334.38L585.84,340.12L574.39,342.85L571.86,339.85L566.64,340.8L553.26,339.9L551.75,338.13L539.36,336.07L523.85,336.66L516.83,341.12L515.91,333.65L511.69,331.69L517.52,326.51L517.39,321.9L512.03,310.36L524.6,309.93L531.65,305.42L533.72,298.04L536.66,296.99L539.57,288.68L543.73,286.64L548.88,287.04Z" class="land" id="BY" title="Belarus"/>
    <path d="M478.19,427.35L481.83,427.49L480.26,434.8L484.36,442.68L481.47,444.92L478.85,445.4L474.16,452.37L474.46,457.78L466.11,453.32L465.21,452.77L465.53,451.4L449.8,435.95L448.71,432.54L444.38,428.71L444.56,423.28L449.94,425.52L452.21,422.79L465.61,424.61L474.41,424.61Z" class="land" id="BA" title="Bosnia and Herzegovina"/>
    <path d="M579.15,442.17L578.41,446.82L573.1,449.5L573.29,455.26L569.45,458.98L575.69,465.59L570.72,466.22L567.98,464.12L560.99,465.64L558.22,468.93L556.69,473.31L547.54,475.19L534.6,471.43L530.33,473.29L522.8,473.96L523.32,468.92L521.24,465.26L515.7,461.02L517.45,459.34L516.4,454.04L521.34,449.48L516.62,445.96L514.58,438.68L517.27,435.65L523.11,440.44L547.05,443.11L554.09,438.68L562.93,436.57L571.49,438.94L573.45,441.11Z" class="land" id="BG" title="Bulgaria"/>
    <path d="M772.69,506.62L765.66,504.91L757.28,496.34L756.65,495.64L759.32,494.82L767.93,499.96ZM792.11,467.23L799.02,474.42L800.94,478.07L807.79,483.94L813.81,486.22L806.32,489.11L805.26,496.9L806.25,500.35L803.02,503.21L801.99,507.45L803.01,512.51L800.12,512.84L793.16,507.41L795.14,505.27L790.97,495.89L788.69,496.37L776.64,506.24L776.64,502.32L772.11,497.09L767.12,493.27L768.22,488.59L761.13,483.22L762.91,480.46L755.76,474.56L758.36,472.47L771.61,477.49L772.7,473.86L767.39,469.71L769.47,466.62L773.01,467.66L779.53,474.25L786.09,475.6L790.78,470.44Z" class="land" id="AZ" title="Azerbaijan"/>
    <path d="M453.39,378.69L452.63,380.73L455.95,386.38L455.42,390.26L452.18,390.53L449.28,394.68L449.8,399.38L446.24,401.25L445.01,403.67L435.24,404.34L430.3,407.08L421.96,405.73L408.35,403.35L405.8,400.31L396.44,399.79L394.3,402.11L388.39,401.23L383.7,400.96L379.34,398.72L378.69,395.94L378.52,392.64L380.78,391.97L386.7,395.39L387.77,392.42L396.71,393.94L400.89,391.87L410.72,390.76L413.29,387.87L411.68,384.37L417.55,381.34L421.38,376.51L423.89,378.64L430.42,378.68L432.93,373.71L437.33,374.05L444.14,376.67L448.37,376.08Z" class="land" id="AT" title="Austria"/>
    <path d="M776.64,506.24L772.69,506.62L767.93,499.96L759.32,494.82L756.65,495.64L750.87,491.16L745.54,490.76L742.33,485.29L743.47,482.14L739.67,477L755.76,474.56L762.91,480.46L761.13,483.22L768.22,488.59L767.12,493.27L772.11,497.09L776.64,502.32Z" class="land" id="AM" title="Armenia"/>
    <path d="M299.08,458.52L296.78,459.43L296.16,457.29Z" class="land" id="AD" title="Andorra"/>
    <path d="M468.91,231.07L471.57,232.16L466.98,234.12L466.19,232.08Z" class="land" id="AX" title="Aland Islands"/>
    <path d="M491.54,457.94L496.29,462.22L497.49,466.84L496.61,471.51L499.94,479.37L502.71,480.41L503.62,482.95L500.19,490.13L493.61,495.55L491.71,491.12L486.68,487.91L485.69,482.88L486.75,479.31L486.08,472.79L487.18,467.99L484.63,466.91L483.69,462.89L487.17,456.86Z" class="land" id="AL" title="Albania"/>
  </g>
</svg>