<?xml version="1.0" encoding="UTF-8"?>
<svg xmlns="http://www.w3.org/2000/svg" width="633.27" height="661.2" viewBox="163.37 -3.1 633.27 661.2">
  <!-- Created using SVG Map Generator: dojo.amcharts.com/svg-map-generator -->
  <style>
    .land { fill: #831100; stroke: #000000; stroke-width: 1.1; }
  </style>
  <g id="polygons">
    <path d="M717.81,444.08L717.65,444.08L717.63,443.92L717.77,443.9Z" class="land" id="GO" title="Glorioso Islands"/>
    <path d="M680,494L679.88,494L679.86,493.79L680.03,493.91Z" class="land" id="JU" title="Juan De Nova Island"/>
    <path d="M589.04,542.45L576.75,540.12L574.45,540.56L572.13,537.07L564.65,534.9L562,530.27L562.46,525.42L551.1,516.39L544.72,500.53L549.32,501.97L558.24,502.03L565.65,492.38L572.17,489.07L573.53,484.13L579.97,481.01L585.12,480.99L585.32,484.19L591.48,484.45L596.77,488.13L604.44,490.7L604.09,505.68L601.67,511.51L603.49,519.44L599.01,527.08L597.88,532.74Z" class="land" id="ZW" title="Zimbabwe"/>
    <path d="M606.52,424.43L609.77,428.55L611.99,435.16L608.81,437.9L608.37,443.72L609.42,452.38L606.45,453.65L605.85,459.05L603.44,462.55L607.41,466.2L584.07,475.07L585.12,480.99L579.97,481.01L573.53,484.13L572.17,489.07L565.65,492.38L558.24,502.03L549.32,501.97L544.72,500.53L537.23,497.69L530.28,499.14L521.09,489.66L519.94,483.83L520.62,457.02L535.1,457.02L536.37,451.77L536.5,437.7L540.68,442.85L545.9,441.08L547.1,444.52L552.3,446.94L559.48,447.02L570.27,452.31L575.13,460.35L581.19,460.57L581.53,449.35L575.8,451.1L570.52,443.25L572.9,435.87L573.01,428.28L571.34,422.78L575.94,415.9L589.86,413.44L598.98,421.23Z" class="land" id="ZM" title="Zambia"/>
    <path d="M589.04,542.45L590.43,552.28L593.22,561.2L592.03,574.84L588.12,572.91L583.08,578.99L584.61,585.36L591.24,587.13L592.71,582.88L598.55,582.97L594.98,595.28L592.81,599.12L585.14,606.02L576.17,620.54L564.55,632.6L556.61,639.52L545.52,645.95L533.4,649.68L524.34,648L514.39,648.77L510.84,651.53L501.5,652.36L494.74,655L488.97,649.12L482.63,638.68L485.54,635.86L485.65,627.57L481.99,620.98L477.19,606.25L473.7,599.09L478.49,593.74L481.2,599.82L486.05,601.41L494.63,601.68L500.34,597.57L501.82,564.08L504.49,566.39L507.68,576.32L506.75,582.96L513.6,583.01L521.47,575.87L523.55,570.28L526.57,568.54L537.55,573.56L543.99,571.64L546.9,563.81L554.16,559.2L556.88,552.67L565.39,545.1L574.45,540.56L576.75,540.12ZM559.13,601.75L552.82,608.63L554.94,614.57L559.44,617.54L562.56,613.04L567.99,610.95L570.62,605.03L565.31,598.76Z" class="land" id="ZA" title="South Africa"/>
    <path d="M615.25,348.33L590.52,348.37L588.71,348.92L585.5,351.64L581.4,351.82L582.52,338.37L584.27,331.84L594.48,320.75L590.36,317.03L591.15,307.66L593.58,304.99L598.63,304.84L601.01,307.31L606.76,304.88L611.86,305.27L615.62,301.06L618.93,305.84L623.51,320.59L622.17,328.12L619.78,329.82L615.58,337.68Z" class="land" id="UG" title="Uganda"/>
    <path d="M615.25,348.33L625.36,354.46L644.41,366.82L645.55,372.52L656.57,381.73L653.24,392.47L653.6,396.57L658.16,401.53L656.6,407.32L656.51,415.71L659.86,429.03L664.99,434.01L661.18,437.25L649.35,442.62L644.94,441.54L641.88,444.99L633.91,445.37L628.29,442.98L621.83,444.12L619.17,439.21L618.87,430.08L617.36,427.38L606.52,424.43L598.98,421.23L589.86,413.44L586.61,404.47L581.99,399.16L580.27,393.8L581.21,390.41L579.32,384.36L579.85,379.53L585.7,376.24L590.79,368.9L588.66,365.66L588.99,360.98L591.15,360.42L591.06,353.41L588.71,348.92L590.52,348.37Z" class="land" id="TZ" title="Tanzania"/>
    <path d="M435.28,37.82L435.51,44.82L430.56,47.86L425.42,53.48L426.34,59.68L421.25,64.73L417.3,47.93L411.91,43.64L407.54,37.36L405.53,29.64L410.79,23.69L411.78,19.42L410.27,7.22L412.7,3.66L420.71,0L427.3,4.18L427.74,13.2L431.83,19.08L424.72,27.82L425.13,31.74Z" class="land" id="TN" title="Tunisia"/>
    <path d="M357.02,239.7L356.08,245.45L360.36,248.74L362.48,257.32L362.68,282.98L359.28,284.13L354.11,277.24L354.96,272.68L353.25,260.92L354.13,254.52L352.05,253.28L352.83,246.56L349.56,242.99L349.47,238.59Z" class="land" id="TG" title="Togo"/>
    <path d="M527.88,240.37L525.01,239.68L519.14,245.39L511.87,254.09L508.55,256.62L499.24,257.62L499,260.88L493.97,266.54L487.69,266.98L480.99,270.9L477.81,269.7L470.81,271.14L467.88,261.78L461.7,255.93L458.89,251.5L460.93,248.89L471.04,249.07L467.78,242.83L467.24,231.98L462.69,221.69L459.17,220.79L455.54,215.11L454.21,208.98L461.12,196.55L469.47,186.02L470.84,158.8L472.39,155.16L466.22,144.06L464.3,130.66L471.84,126.57L496.78,140.98L519.26,153.9L534.3,162.5L535.48,196.27L528.71,196.98L524.49,211.28L521.46,214.88L522.49,218.52L519.47,223.41L523.59,224.59L525.37,233.57L528.29,236.52Z" class="land" id="TD" title="Chad"/>
    <path d="M784.11,381.74L782.9,380.98L783.48,380.52Z" class="land" id="SC" title="Seychelles"/>
    <path d="M592.03,574.84L592.71,582.88L591.24,587.13L584.61,585.36L583.08,578.99L588.12,572.91Z" class="land" id="SZ" title="Eswatini"/>
    <path d="M402.12,338.16L401.05,336.18L402.32,335.6L402.82,337.05Z" class="land" id="ST" title="Sao Tome and Principe"/>
    <path d="M674.92,354.6L670.62,347.13L670.4,313.78L677.47,303.25L684.53,300.4L687.09,297.21L693.79,294.44L701.23,294.79L708.81,284.97L724.28,266.86L716.48,266.86L693.16,257.9L688.83,254.33L682.03,243.07L683.95,239.65L686.29,235.11L691.27,241.6L695.54,244.81L699.87,244.75L706.53,241.13L712.39,241.95L718.76,238.07L730.38,237.33L739.65,234.84L744.76,230.72L748.42,232.11L747.31,236.6L748.03,242.76L746.3,246.41L746.03,253.89L735.24,275.97L733.09,283.37L725.02,298.55L710.21,316.85L696.84,326.67L690.09,333.63L678.44,348.06Z" class="land" id="SO" title="Somalia"/>
    <path d="M269.82,262.43L266.93,269.01L260.17,276.73L252.57,272.39L249.52,268.13L246.4,257.32L250.61,254.39L252.64,249.96L262.74,248.91L266.7,254.92Z" class="land" id="SL" title="Sierra Leone"/>
    <path d="M306,484.22L305.36,483.84L305.88,483.38Z" class="land" id="SH" title="Saint Helena"/>
    <path d="M254.9,205.09L256.85,210.56L256.51,215.76L261.58,222.04L261.53,226.91L254.52,227.6L248.41,224.83L243.39,224.47L232,224.41L229.03,226.13L220.18,227.36L219.89,220.93L227.11,220.09L229.7,216.19L221.53,216.18L217.02,206.62L217.24,204.06L222.15,195.75L225.12,189.31L233.29,188.42L239.56,189.01L242.82,192.93L246.35,193.74L250.49,201.15Z" class="land" id="SN" title="Senegal"/>
    <path d="M615.53,253.59L615.85,261.55L609.18,263.24L607.54,267.27L612.69,269.81L621.03,278.96L625.56,289.54L615.62,301.06L611.86,305.27L606.76,304.88L601.01,307.31L598.63,304.84L593.58,304.99L591.15,307.66L586.08,303.21L581.97,297.74L577.88,299.54L570.39,299.88L564.15,293.01L561.58,286.96L557.1,284.32L555.84,279.19L548.1,272.87L543.87,265.58L539.46,264.19L538.28,260.8L541.25,258.79L543.07,250.75L545.45,245.88L550.84,244.9L556.87,253L567.26,252.34L568.58,254.79L574.78,254.82L583.61,246.19L589.46,251.04L593.22,250.53L602.1,239.12L601.39,233.15L607.96,228.6L607.16,234.28L608.13,241L613.9,246.9Z" class="land" id="SS" title="South Sudan"/>
    <path d="M631.95,139.75L634.61,147.88L636.22,161.72L638.33,168.65L647.52,176.06L644.99,179.88L638.74,184.64L635.64,184.66L635.25,191.58L631.98,202.16L633.08,210.11L630.39,223.98L626.48,225.7L622.95,232.24L621.82,240.87L616.8,243.92L615.53,253.59L613.9,246.9L608.13,241L607.16,234.28L607.96,228.6L601.39,233.15L602.1,239.12L593.22,250.53L589.46,251.04L583.61,246.19L574.78,254.82L568.58,254.79L567.26,252.34L556.87,253L550.84,244.9L545.45,245.88L543.07,250.75L541.25,258.79L538.28,260.8L533.5,259.44L534.19,250.31L527.88,240.37L528.29,236.52L525.37,233.57L523.59,224.59L519.47,223.41L522.49,218.52L521.46,214.88L524.49,211.28L528.71,196.98L535.48,196.27L534.3,162.5L534.12,157.96L541.7,157.97L541.02,139.76L570.23,139.77L590.37,139.76L604.35,139.76Z" class="land" id="SD" title="Sudan"/>
    <path d="M284.53,88.19L284.46,91.57L284.24,103.33L258.99,103.33L258.37,126.36L250.58,130.62L250.34,145.79L220.1,145.83L219.33,150.59L220.52,140.64L223.82,136.69L226.35,129.72L231.38,120.85L235.68,116.51L240.9,100.98L247.38,96.59L250.64,88.23Z" class="land" id="EH" title="Western Sahara"/>
    <path d="M588.71,348.92L591.06,353.41L591.15,360.42L588.99,360.98L584.12,360.43L583.62,363.84L576.94,363.88L577.88,356.09L581.4,351.82L585.5,351.64Z" class="land" id="RW" title="Rwanda"/>
    <path d="M777.26,532.78L773.99,532.18L773.91,528.82L776.6,528.84Z" class="land" id="RE" title="Reunion"/>
    <path d="M222.44,40.68L226.09,41.69L224.97,42.68L222.53,42.01Z" class="land" id="PT" title="Madeira"/>
    <path d="M455.54,215.11L459.17,220.79L460.3,227.09L463.67,229.59L463.22,235.18L458.07,238.37L450.75,253.91L449.84,258.8L446.72,261.43L440.2,278.63L437.1,280.98L432.8,275.32L429.19,275.92L420.78,284.86L416.88,296.21L414.83,298L405.93,298.39L397.51,300.42L393.68,297.19L387.98,284.7L382.23,281.22L371.14,281.6L370.96,267.97L371.63,257.33L373.74,257.01L379.85,243.2L377.13,236.06L377.96,233.33L378.33,225.77L380.66,223.55L382.19,217.35L392.59,213.59L399.54,216.03L403.86,221.43L410.44,218.44L417.94,222.34L424.67,223.23L429.04,219.06L438.56,218.3L446.74,220.66L448.2,218.54Z" class="land" id="NG" title="Nigeria"/>
    <path d="M464.3,130.66L466.22,144.06L472.39,155.16L470.84,158.8L469.47,186.02L461.12,196.55L454.21,208.98L455.54,215.11L448.2,218.54L446.74,220.66L438.56,218.3L429.04,219.06L424.67,223.23L417.94,222.34L410.44,218.44L403.86,221.43L399.54,216.03L392.59,213.59L382.19,217.35L380.66,223.55L378.33,225.77L377.96,233.33L372.37,227.24L368.58,231.51L365.2,224.16L362.16,224.81L357.67,221.13L357.59,216.5L354.8,215.12L351.28,207.92L351.69,204.16L357.44,203.48L360.07,200.89L377.12,200.12L379.99,196.5L382.69,185.23L382.52,165.72L394.87,162.66L407.35,149.98L429.54,134.25L441.21,125.9L452.83,128.98L458.68,134.09Z" class="land" id="NE" title="Niger"/>
    <path d="M530.28,499.14L537.23,497.69L544.72,500.53L537.72,502.21L531.57,506.52L529.53,502.66L511.54,505.3L510.36,538.79L502.77,538.79L501.82,564.08L500.34,597.57L494.63,601.68L486.05,601.41L481.2,599.82L478.49,593.74L473.7,599.09L468.44,593.14L465.78,587.86L463.29,578.13L462.67,566.41L460.34,558.84L460.91,545.19L459.47,540.52L453.09,528.93L451.08,522.27L445.85,510.83L440.75,502.42L440.61,495.59L446.83,495.25L451.14,493.02L457.52,496.85L480.47,496.88L491.91,496.95L495.13,500.28L515.04,502.41Z" class="land" id="NA" title="Namibia"/>
    <path d="M700.74,456.79L699.91,456.06L700.5,454.37L701.16,454.76Z" class="land" id="YT" title="Mayotte"/>
    <path d="M621.83,444.12L619.5,444.21L616.99,449.85L618.2,460.27L623.31,465.14L627.67,472.17L626.4,484.77L621.64,489.32L615.83,486.05L614.82,483.22L617.32,477.85L616.03,469.79L610.58,471.24L607.41,466.2L603.44,462.55L605.85,459.05L606.45,453.65L609.42,452.38L608.37,443.72L608.81,437.9L611.99,435.16L609.77,428.55L606.52,424.43L617.36,427.38L618.87,430.08L619.17,439.21Z" class="land" id="MW" title="Malawi"/>
    <path d="M792.22,525L790.4,522.67L792.06,520.56L793.53,522.52Z" class="land" id="MU" title="Mauritius"/>
    <path d="M254.9,205.09L250.49,201.15L246.35,193.74L242.82,192.93L239.56,189.01L233.29,188.42L225.12,189.31L222.15,195.75L222.23,191.67L226.01,180.23L226.17,171.37L223.06,163.72L225.6,155.85L224.03,151.99L219.33,150.59L220.1,145.83L250.34,145.79L250.58,130.62L258.37,126.36L258.99,103.33L284.24,103.33L284.46,91.57L297.1,100.64L313.39,112.44L299.93,112.45L302.77,146.23L304.14,162.06L306.53,189.11L308.59,191.71L307.36,198.85L279.01,198.85L267.24,199.52L265.67,201.99L261.03,197.58L258.09,203.4Z" class="land" id="MR" title="Mauritania"/>
    <path d="M598.55,582.97L592.71,582.88L592.03,574.84L593.22,561.2L590.43,552.28L589.04,542.45L597.88,532.74L599.01,527.08L603.49,519.44L601.67,511.51L604.09,505.68L604.44,490.7L596.77,488.13L591.48,484.45L585.32,484.19L585.12,480.99L584.07,475.07L607.41,466.2L610.58,471.24L616.03,469.79L617.32,477.85L614.82,483.22L615.83,486.05L621.64,489.32L626.4,484.77L627.67,472.17L623.31,465.14L618.2,460.27L616.99,449.85L619.5,444.21L621.83,444.12L628.29,442.98L633.91,445.37L641.88,444.99L644.94,441.54L649.35,442.62L661.18,437.25L664.99,434.01L664.24,441.88L665.16,453.7L664.92,469.62L666.25,473.27L663.81,479.45L657.83,488.19L651.7,493.07L644.32,495.52L637.13,500.04L631.33,507.11L618.42,518.89L616.2,524.27L619.88,535.61L619.82,542.4L621.46,547.56L617.27,561.93L603.08,568.49L598.62,571.99Z" class="land" id="MZ" title="Mozambique"/>
    <path d="M382.52,165.72L382.69,185.23L379.99,196.5L377.12,200.12L360.07,200.89L357.44,203.48L351.69,204.16L344.12,202.93L336.31,208.02L330.96,209.95L322.26,219.75L316.41,220.43L315.6,227.51L308.9,232.14L307.01,244.85L303.02,246.94L301.28,242.14L294.69,246.86L290.37,244.84L287.79,247.23L285.93,244.74L284.62,236.14L281.42,233.54L279.76,226.93L273.69,230.19L270.17,228.65L267.02,231.49L261.53,226.91L261.58,222.04L256.51,215.76L256.85,210.56L254.9,205.09L258.09,203.4L261.03,197.58L265.67,201.99L267.24,199.52L279.01,198.85L307.36,198.85L308.59,191.71L306.53,189.11L304.14,162.06L302.77,146.23L299.93,112.45L313.39,112.44L325.21,121.68L340.14,133.39L358.78,147.89L362.94,154.48L374.61,159.84L376.17,167.12Z" class="land" id="ML" title="Mali"/>
    <path d="M734.82,451.86L737.62,457.67L739.08,472.72L740.64,478.66L731.54,495.5L731.34,501.48L722.86,524.75L715.97,543.03L712.13,555.86L708.45,564.17L704.72,567.48L692.14,571.06L684.4,566.07L682.28,560.26L683.19,552.72L681.21,546.86L680.81,539.24L683.1,532.93L686,530.39L690.98,519.88L691.64,515.39L689.2,505.03L689.25,496.88L693.05,490.62L693.73,486.21L708.34,481.64L720.41,471.02L722.12,465.72L728.67,459.43L729.84,452.1Z" class="land" id="MG" title="Madagascar"/>
    <path d="M333.67,20.32L336.77,23.53L337.57,36.58L342.09,44.32L340.52,47.78L331.79,47.41L321.5,51.68L320.24,58.49L312.85,62.58L309.19,67.22L301.29,68.56L292.34,72.75L284.9,78.51L284.53,88.19L250.64,88.23L252.43,85.84L263.99,81.57L271.25,75.35L277.63,65.83L276.21,60.28L276.87,53.84L281.33,43.37L286.29,37.78L299,30.65L303.18,23.31L306.5,14.12L310.4,12.81L312.48,17.02L318.14,19.8L322.84,18.73Z" class="land" id="MA" title="Morocco"/>
    <path d="M559.13,601.75L565.31,598.76L570.62,605.03L567.99,610.95L562.56,613.04L559.44,617.54L554.94,614.57L552.82,608.63Z" class="land" id="LS" title="Lesotho"/>
    <path d="M537.39,51.74L535.37,54.65L536.6,59.74L535.01,65.62L537.56,74.28L538.64,92.71L540.15,121.36L541.02,139.76L541.7,157.97L534.12,157.96L534.3,162.5L519.26,153.9L496.78,140.98L471.84,126.57L464.3,130.66L458.68,134.09L452.83,128.98L441.21,125.9L437.54,118.65L427.96,116.13L425.89,109.38L421.56,102.68L424.58,98.26L423.58,91.16L424.76,87.01L423.95,76.24L421.25,64.73L426.34,59.68L425.42,53.48L430.56,47.86L435.51,44.82L435.28,37.82L441.13,40.77L448.56,40.26L462.81,45.03L465.46,51.72L470.29,55.3L479.51,56.96L485.92,59.74L491.71,64.18L497.43,62.37L500.42,56.99L498.39,50.25L503.17,43.31L510.52,40.05L521.5,42.95L523.19,46.64L533.7,48.44Z" class="land" id="LY" title="Libya"/>
    <path d="M283.79,270.83L285.25,275.22L282.82,280.35L288.4,282.82L291.78,286.38L291.03,299.87L278.64,293.5L269.74,284.24L260.17,276.73L266.93,269.01L269.82,262.43L275.78,263.69L278.84,273.93Z" class="land" id="LR" title="Liberia"/>
    <path d="M677.47,303.25L670.4,313.78L670.62,347.13L674.92,354.6L670.7,356.91L667.91,362.24L664.6,363.59L663.72,368.68L658.7,379.8L656.57,381.73L645.55,372.52L644.41,366.82L625.36,354.46L615.25,348.33L615.58,337.68L619.78,329.82L622.17,328.12L623.51,320.59L618.93,305.84L615.62,301.06L625.56,289.54L629.31,290.88L629.52,295.74L632.05,298.98L638.5,299.33L647.81,306.23L658.84,307.97L661.52,304.39L668.69,300.58L672.29,303.56Z" class="land" id="KE" title="Kenya"/>
    <path d="M425.04,329.92L426.67,318.4L428.07,319.64L438.62,319.64L438.69,330.21Z" class="land" id="GQ" title="Equatorial Guinea"/>
    <path d="M232.96,240.18L230.27,237.67L229.5,233.08L224.57,231.33L220.18,227.36L229.03,226.13L232,224.41L243.39,224.47L243.25,232.97L235.83,235.03Z" class="land" id="GW" title="Guinea-Bissau"/>
    <path d="M219.89,220.93L221.53,216.18L229.7,216.19L227.11,220.09Z" class="land" id="GM" title="Gambia"/>
    <path d="M261.53,226.91L267.02,231.49L270.17,228.65L273.69,230.19L279.76,226.93L281.42,233.54L284.62,236.14L285.93,244.74L287.79,247.23L289,262.59L285.77,270.85L283.79,270.83L278.84,273.93L275.78,263.69L269.82,262.43L266.7,254.92L262.74,248.91L252.64,249.96L250.61,254.39L246.4,257.32L243.3,250.06L237.68,246.46L235.04,240.26L232.96,240.18L235.83,235.03L243.25,232.97L243.39,224.47L248.41,224.83L254.52,227.6Z" class="land" id="GN" title="Guinea"/>
    <path d="M349.47,238.59L349.56,242.99L352.83,246.56L352.05,253.28L354.13,254.52L353.25,260.92L354.96,272.68L354.11,277.24L359.28,284.13L357.43,286.66L352.04,287.14L343.78,291.95L334.36,296.15L325.67,293.19L325.89,292.83L326.42,292.81L328.17,292.33L325.01,281.79L324.75,277.63L328.24,267.45L330.46,264.94L329,253.41L327.99,239.66L346.18,239.58Z" class="land" id="GH" title="Ghana"/>
    <path d="M454,319.69L453.86,328.03L460.95,326.86L462.94,331.91L458.64,337.53L458.45,341.1L463.3,344.85L462.53,356.36L460.2,361.58L451.63,360.2L440.55,360.96L440.25,364.93L443.33,369.3L437.03,374.7L430.93,366.53L425.29,360.68L422.49,355.78L419.03,345.67L422.75,342.44L425.04,329.92L438.69,330.21L438.62,319.64L438.78,318.44L453.42,318.83Z" class="land" id="GA" title="Gabon"/>
    <path d="M679.19,226.34L674.75,234.3L675.21,239.82L683.95,239.65L682.03,243.07L688.83,254.33L693.16,257.9L716.48,266.86L724.28,266.86L708.81,284.97L701.23,294.79L693.79,294.44L687.09,297.21L684.53,300.4L677.47,303.25L672.29,303.56L668.69,300.58L661.52,304.39L658.84,307.97L647.81,306.23L638.5,299.33L632.05,298.98L629.52,295.74L629.31,290.88L625.56,289.54L621.03,278.96L612.69,269.81L607.54,267.27L609.18,263.24L615.85,261.55L615.53,253.59L616.8,243.92L621.82,240.87L622.95,232.24L626.48,225.7L630.39,223.98L633.08,210.11L638.68,208.31L641.23,211.08L643.38,204.7L648.35,208.58L652.68,206.73L661.65,208.52L666.03,211.12Z" class="land" id="ET" title="Ethiopia"/>
    <path d="M243.1,83.52L244.72,78.61L246.01,79.72L245.15,82.75Z" class="land" id="ES" title="Canary Islands"/>
    <path d="M647.52,176.06L652.27,187.65L655.64,198.53L661.27,203.23L668.97,206.8L672.98,212.59L677.7,216.17L682.27,222.74L684.82,224.15L679.19,226.34L666.03,211.12L661.65,208.52L652.68,206.73L648.35,208.58L643.38,204.7L641.23,211.08L638.68,208.31L633.08,210.11L631.98,202.16L635.25,191.58L635.64,184.66L638.74,184.64L644.99,179.88Z" class="land" id="ER" title="Eritrea"/>
    <path d="M631.95,139.75L604.35,139.76L590.37,139.76L570.23,139.77L541.02,139.76L540.15,121.36L538.64,92.71L537.56,74.28L535.01,65.62L536.6,59.74L535.37,54.65L537.39,51.74L553.2,54.26L567.19,59.25L576.61,53.54L582.47,52.35L589.62,56.86L601.27,56.52L605.21,55.04L611.84,71.59L609.16,84.91L602.81,85.98L606.8,97.38L617.61,117.18L621.14,120.91L620.76,126.59L622.4,131.11Z" class="land" id="EG" title="Egypt"/>
    <path d="M412.7,3.66L410.27,7.22L411.78,19.42L410.79,23.69L405.53,29.64L407.54,37.36L411.91,43.64L417.3,47.93L421.25,64.73L423.95,76.24L424.76,87.01L423.58,91.16L424.58,98.26L421.56,102.68L425.89,109.38L427.96,116.13L437.54,118.65L441.21,125.9L429.54,134.25L407.35,149.98L394.87,162.66L382.52,165.72L376.17,167.12L374.61,159.84L362.94,154.48L358.78,147.89L340.14,133.39L325.21,121.68L313.39,112.44L297.1,100.64L284.46,91.57L284.53,88.19L284.9,78.51L292.34,72.75L301.29,68.56L309.19,67.22L312.85,62.58L320.24,58.49L321.5,51.68L331.79,47.41L340.52,47.78L342.09,44.32L337.57,36.58L336.77,23.53L333.67,20.32L335.92,20.41L343.27,15.19L350.36,13.08L359.21,7.45L368.99,6.72L377.64,4.03L384.79,4.03L388.03,6.03L397.4,2.31L400.65,3.82Z" class="land" id="DZ" title="Algeria"/>
    <path d="M686.29,235.11L683.95,239.65L675.21,239.82L674.75,234.3L679.19,226.34L684.82,224.15L687.31,228.85L682.73,232.94Z" class="land" id="DJ" title="Djibouti"/>
    <path d="M168.5,203.29L166.47,203.71L166.58,200.89Z" class="land" id="CV" title="Cape Verde"/>
    <path d="M687.85,447.04L686.05,445.69L687.28,444.44Z" class="land" id="KM" title="Comoros"/>
    <path d="M495.53,307.77L491.38,321.03L490.07,329.14L488.91,344.23L482.07,350.35L476.85,358.97L476.27,370.61L465.52,383.12L462.25,378.17L454.85,383.04L452.19,381.21L446.81,381.06L443.93,384.55L437.03,374.7L443.33,369.3L440.25,364.93L440.55,360.96L451.63,360.2L460.2,361.58L462.53,356.36L463.3,344.85L458.45,341.1L458.64,337.53L462.94,331.91L460.95,326.86L453.86,328.03L454,319.69L463.31,319.75L473.15,321.92L476.6,318.71L480.38,307.26L486.36,305.91Z" class="land" id="CG" title="Republic of Congo"/>
    <path d="M564.15,293.01L570.39,299.88L577.88,299.54L581.97,297.74L586.08,303.21L591.15,307.66L590.36,317.03L594.48,320.75L584.27,331.84L582.52,338.37L581.4,351.82L577.88,356.09L576.94,363.88L578.56,366.9L578.49,374.66L579.85,379.53L579.32,384.36L581.21,390.41L580.27,393.8L581.99,399.16L586.61,404.47L589.86,413.44L575.94,415.9L571.34,422.78L573.01,428.28L572.9,435.87L570.52,443.25L575.8,451.1L581.53,449.35L581.19,460.57L575.13,460.35L570.27,452.31L559.48,447.02L552.3,446.94L547.1,444.52L545.9,441.08L540.68,442.85L536.5,437.7L535.43,438.99L525.53,439.38L523.44,432.16L519.97,425L520.8,417.97L519.77,405.39L510.85,405.14L509.9,401.87L502.43,403.94L500.89,411.38L486.8,412.37L482.57,404.96L480.57,395.76L477.45,392.36L452.09,392.35L446.95,393.45L445.42,391.39L447.86,385.86L452.19,381.21L454.85,383.04L462.25,378.17L465.52,383.12L476.27,370.61L476.85,358.97L482.07,350.35L488.91,344.23L490.07,329.14L491.38,321.03L495.53,307.77L495.16,300.72L499.04,294.98L503.85,292.9L510.71,298.86L525.3,301.83L527.87,297.19L533.04,297.05L540.07,294.05L547.33,293.78L549.46,291.17L559.62,293.43Z" class="land" id="CD" title="Democratic Republic of Congo"/>
    <path d="M470.81,271.14L469,273.5L464.19,286.17L464.97,297.03L468.29,304.62L475.64,312.93L476.6,318.71L473.15,321.92L463.31,319.75L454,319.69L453.42,318.83L438.78,318.44L438.62,319.64L428.07,319.64L426.67,318.4L427.24,309.3L423.7,303.75L420.37,302.22L416.88,296.21L420.78,284.86L429.19,275.92L432.8,275.32L437.1,280.98L440.2,278.63L446.72,261.43L449.84,258.8L450.75,253.91L458.07,238.37L463.22,235.18L463.67,229.59L460.3,227.09L459.17,220.79L462.69,221.69L467.24,231.98L467.78,242.83L471.04,249.07L460.93,248.89L458.89,251.5L461.7,255.93L467.88,261.78Z" class="land" id="CM" title="Cameroon"/>
    <path d="M307.01,244.85L313.97,251.3L324.9,249.66L329,253.41L330.46,264.94L328.24,267.45L324.75,277.63L325.01,281.79L328.17,292.33L326.42,292.81L318.46,291.91L306.52,293.19L291.03,299.87L291.78,286.38L288.4,282.82L282.82,280.35L285.25,275.22L283.79,270.83L285.77,270.85L289,262.59L287.79,247.23L290.37,244.84L294.69,246.86L301.28,242.14L303.02,246.94Z" class="land" id="CI" title="Côte d'Ivoire"/>
    <path d="M527.88,240.37L534.19,250.31L533.5,259.44L538.28,260.8L539.46,264.19L543.87,265.58L548.1,272.87L555.84,279.19L557.1,284.32L561.58,286.96L564.15,293.01L559.62,293.43L549.46,291.17L547.33,293.78L540.07,294.05L533.04,297.05L527.87,297.19L525.3,301.83L510.71,298.86L503.85,292.9L499.04,294.98L495.16,300.72L495.53,307.77L486.36,305.91L480.38,307.26L476.6,318.71L475.64,312.93L468.29,304.62L464.97,297.03L464.19,286.17L469,273.5L470.81,271.14L477.81,269.7L480.99,270.9L487.69,266.98L493.97,266.54L499,260.88L499.24,257.62L508.55,256.62L511.87,254.09L519.14,245.39L525.01,239.68Z" class="land" id="CF" title="Central African Republic"/>
    <path d="M544.72,500.53L551.1,516.39L562.46,525.42L562,530.27L564.65,534.9L572.13,537.07L574.45,540.56L565.39,545.1L556.88,552.67L554.16,559.2L546.9,563.81L543.99,571.64L537.55,573.56L526.57,568.54L523.55,570.28L521.47,575.87L513.6,583.01L506.75,582.96L507.68,576.32L504.49,566.39L501.82,564.08L502.77,538.79L510.36,538.79L511.54,505.3L529.53,502.66L531.57,506.52L537.72,502.21Z" class="land" id="BW" title="Botswana"/>
    <path d="M351.69,204.16L351.28,207.92L354.8,215.12L357.59,216.5L357.67,221.13L362.16,224.81L365.2,224.16L368.58,231.51L365.41,235.85L361.1,235.59L357.02,239.7L349.47,238.59L346.18,239.58L327.99,239.66L329,253.41L324.9,249.66L313.97,251.3L307.01,244.85L308.9,232.14L315.6,227.51L316.41,220.43L322.26,219.75L330.96,209.95L336.31,208.02L344.12,202.93Z" class="land" id="BF" title="Burkina Faso"/>
    <path d="M377.96,233.33L377.13,236.06L379.85,243.2L373.74,257.01L371.63,257.33L370.96,267.97L371.14,281.6L362.68,282.98L362.48,257.32L360.36,248.74L356.08,245.45L357.02,239.7L361.1,235.59L365.41,235.85L368.58,231.51L372.37,227.24Z" class="land" id="BJ" title="Benin"/>
    <path d="M588.99,360.98L588.66,365.66L590.79,368.9L585.7,376.24L579.85,379.53L578.49,374.66L578.56,366.9L576.94,363.88L583.62,363.84L584.12,360.43Z" class="land" id="BI" title="Burundi"/>
    <path d="M445.42,391.39L443.93,384.55L446.81,381.06L452.19,381.21L447.86,385.86ZM536.5,437.7L536.37,451.77L535.1,457.02L520.62,457.02L519.94,483.83L521.09,489.66L530.28,499.14L515.04,502.41L495.13,500.28L491.91,496.95L480.47,496.88L457.52,496.85L451.14,493.02L446.83,495.25L440.61,495.59L440.87,482.71L442.58,480.91L447.38,460.98L450.82,454.98L454.22,452.66L457.17,446.24L457.74,439.37L451.32,421.18L454.34,415.03L446.1,394.41L452.09,392.35L477.45,392.36L480.57,395.76L482.57,404.96L486.8,412.37L500.89,411.38L502.43,403.94L509.9,401.87L510.85,405.14L519.77,405.39L520.8,417.97L519.97,425L523.44,432.16L525.53,439.38L535.43,438.99Z" class="land" id="AO" title="Angola"/>
  </g>
</svg>