<?xml version="1.0" encoding="UTF-8"?>
<svg xmlns="http://www.w3.org/2000/svg" width="966.2" height="333.48" viewBox="-3.1 160.76 966.2 333.48">
  <!-- Created using SVG Map Generator: dojo.amcharts.com/svg-map-generator -->
  <style>
    .land { fill: #831100; stroke: #000000; stroke-width: 1.1; }
  </style>
  <g id="polygons">
    <path d="M869.48,268.61L865.72,267.01L864.21,267.42L865.31,271.52L866.03,272.74L868.48,274.62L870.77,277.05L868.42,276.54L868.7,278.78L866.82,277.45L865.89,274.93L864.67,273.29L864.33,271.74L861.73,269.05L860.6,266.08L858.13,262.66L856.79,260.11L854.17,258.26L850.43,252.54L852.1,252.15L854.42,252.69L856.44,255.12L857.32,257.02L859.68,259.21L863.62,263.5L868.33,267.96ZM29.69,208.79L25.74,210.55L21.11,211.19L19.71,212.43L16.64,213.56L14.92,214.9L10.32,212.55L11.45,211.04L9.55,210.58L5.89,211L6.19,209.52L0,212.37L0.94,211.56L1.89,210.76L2.84,209.96L3.79,209.17L4.74,208.37L5.7,207.58L6.65,206.78L7.61,205.99L8.58,205.2L9.54,204.41L10.51,203.63L11.48,202.84L12.46,202.06L13.43,201.28L14.41,200.5L15.39,199.72L17.24,200.45L18.85,202.07L21.75,203.89L21.78,205.74L23.86,205.61L27.76,206.29ZM24.46,193.62L23.55,193.41L24.34,192.81L25.23,192.14L25.8,191.72L29.71,191.74L29.1,193.17ZM785.91,185.94L787.73,184.61L789.55,184.46L794.03,185.51L794.86,186.56ZM797.17,181.04L797.13,179.93L803.96,180.58L804.41,181.9L800.73,181.74ZM773.65,180.53L772.51,178.55L774.51,177.71L780.14,179.2L780.84,177.89L791.45,179.5L790.52,181.09L786,181.25L780.44,182.24L777.63,181.83ZM842.61,292.77L841.72,291.91L842.63,290.55L842.21,288.58L840.98,286.22L838.85,283.12L840.8,281.89L844.01,282.68L843.8,280.97L844.22,278.2L842.9,274.33L843.7,272.82L841.84,270.61L840.96,270.42L837.34,271.98L837.17,272.82L832.84,272.85L831.06,270.54L825.35,266.97L822.4,265.97L820.47,266.08L818.4,264.98L817.93,263.76L814.12,260.55L809.54,255.89L806.26,253.6L803.73,253.27L799.47,251.8L796.09,252.02L792.24,253.13L791.38,254.5L793.69,255.55L794.74,257.41L793.8,258.75L793.85,263.15L794.46,264.47L792.82,265.08L791.84,266.28L787.85,265.16L785.94,264.48L783.62,264.7L780.23,263.53L777.93,265.25L777.97,265.91L773.57,266.85L772.48,267.54L767.64,266.93L765.9,266.97L763.76,265.99L762.92,264.79L760.78,264.56L758.72,263.39L754.68,262.81L750.33,264.02L745.75,262.4L743.91,259.64L741.69,259.28L733.51,257.07L732.23,259.66L732.5,260.96L734.53,262.59L734.79,264.24L732.83,265.49L731.95,264.94L728.53,264.47L727.76,264.84L725.01,264.43L723.13,262.51L716.01,262.01L711.12,264.87L711.43,265.54L709.49,266.52L707.68,266.5L707.02,267.55L705.73,267.83L702.97,265.93L701.89,266.33L698.9,265.73L697.71,264.3L695.32,263.48L693.74,261.72L691.77,260.93L689.72,261.89L686.81,261.85L684.4,259.9L682.59,261.72L675.79,255.03L672.61,252.4L668.7,250.4L667.33,249.09L663.24,251.44L660.11,250.86L658.37,249.81L653.21,249.44L652.96,248.07L650.81,245.59L649.47,246.09L645.88,245.29L643.95,246.8L639.23,247.83L637.24,247.99L636.67,248.9L634.73,248.83L628.25,250.38L626.49,250.02L625.99,251.53L626.97,252.72L626.46,254.66L627.33,256.31L625.64,257.23L623.71,255.67L621.69,255.15L621,253.11L622.61,250.4L621.51,249.1L619.41,248.31L616.32,250.25L614.02,248.53L610.66,245.44L615.95,244.72L616.98,242.84L616.2,241.35L613.78,240.15L613.79,238.51L615.28,236.7L616.21,234.4L616.81,231.24L616.17,225.9L613.77,214.95L617.7,212.9L620.95,210.24L623.84,208.76L626.41,206.97L627.38,205.15L625.52,199.78L623.42,198.15L620.8,197.48L619.75,194.2L618.03,192.51L620.65,191.27L620.91,188.24L621.98,187.54L626.34,187.49L629.82,188.17L630.41,190.05L629.59,191.69L632.76,193.94L635.12,199.42L638.45,201.02L638.62,203.29L636.39,206.85L635.18,207.54L632.06,206.57L630.76,207.44L633.99,208.2L638.1,208.52L638.87,207.5L641.62,206.09L642.8,203.61L640.78,201.51L640.7,200.46L644.94,199.74L643.38,198.93L640.71,199.38L637.99,199.04L636.62,197.43L636.86,194.46L632.58,192L633.3,190.77L637.13,190.86L643.8,189.08L646.06,189.12L652.23,191.07L655.75,191.06L652.9,189.56L649.2,188.79L646.58,185.51L653.34,185.21L660.02,184.52L658.52,182.17L659.94,180.84L664.73,179.49L671.86,178.72L673.52,177.85L679.32,178.49L685.83,176.9L686.04,175.44L690.91,173.34L695.8,174.02L694.43,174.91L700.81,175.62L702.74,176.21L709.74,176.2L714.12,177.18L718.48,178.71L719.46,180.36L716.94,182L713.34,183.24L711.14,185.13L711.41,186.7L715.6,185.8L715.13,184.15L720.36,185.08L725.19,185.46L727.87,185.1L735.49,185.44L736.4,186.48L740.27,187.29L748.39,187.37L747.06,185.61L748.95,184.94L752.53,185.65L757.64,185.77L761.22,186.65L765.1,189.32L763.28,190.02L769.51,193.01L774.5,193.69L773.89,190.61L779.17,192.21L782.66,191.43L786.94,192.27L791.56,191.21L788.76,188.77L793.86,188.08L802.58,188.63L806.02,189.36L810.29,189.33L813.42,189.78L818.28,191.77L825.25,193.9L832.49,193.09L837.85,193.26L841.91,194.04L845.25,195.54L846.72,197.19L852.34,198.47L853.41,197.62L864.81,198.09L865.88,197.33L869.3,198.81L872.49,199.42L874.33,200.35L876.75,199.53L871.44,196.17L879.33,197.07L886.08,196.95L888.92,197.63L894.65,198.44L899.09,199.72L914.48,212.37L912.49,213.89L910.32,214.42L915.24,216L917.05,217.47L919.91,218.57L922.4,220.25L922.61,221.48L917.03,220.58L913.39,222.21L912.43,223.15L909.36,224.34L909.58,225.72L907.07,227.84L906.68,229.09L902.88,227.3L900.08,227.37L897.89,228.28L895.68,227.67L893.63,228.99L890.37,229.18L890.06,229.89L891.43,231.71L891.17,234.65L891.86,235.92L896.32,238.41L898.1,240.31L899.71,240.74L901.34,242.33L899.06,242.24L898.38,242.83L899.63,245.4L902.49,247.53L902.09,248.31L899.45,248.28L898.56,249.52L900.42,252.39L898.29,254.2L899.48,256.23L899.85,258L898.33,261.02L896.27,259.2L893.06,255.5L890.94,253.72L882.77,245.43L879.98,240.72L880.62,239.13L880.6,236.88L882.93,234.73L882.88,232.31L884.64,228.8L884.43,227.89L887.28,226.21L886.63,224.76L882.7,220.22L880.8,220.71L882.53,223.26L881.35,223.69L880.08,226.76L871.84,222.82L868.05,223.23L867.09,226.68L866.02,228.04L865.92,229.89L869.7,231.51L867.5,232.48L865.34,232.01L864.9,232.95L861.86,232.2L859.42,230.95L853.79,230.11L853.47,231.07L849.63,231.82L846.31,231.27L837.84,231.48L835.78,232.75L833.99,237.27L832.32,239.78L831.86,242.66L829.75,245.42L828.28,246.86L830.8,248.13L833.3,248L834.71,250.44L837.47,251.83L840.65,251.1L839.29,249.06L842.19,249.21L849.66,253.09L851.06,256L852.41,256.68L852.5,260.07L853.56,262.55L855.92,265.98L857.41,269.87L856.56,272.2L856.14,275.23L856.53,277.11L856.19,279.78L854.97,282.16L854.43,284.67L853.88,285.1L853.38,288.24L850.53,290.82L849.17,291.31L846.3,290.62L843.99,289.44ZM680.09,170.84L681.04,168.88L683.57,168.77L691.68,171.2L688.8,171.87L679.49,172.48ZM669.98,166.71L676.48,167.74L677.71,170.28L673.55,170.3L666.34,169.48L661.9,168.49L664.5,166.9ZM656.74,166.45L657.89,164.6L662.95,163.86L668.72,165.08L668.87,166.52L663.5,166.82L662.3,167.13Z" class="land" id="RU" title="Russia - Asia"/>
    <path d="M626.51,389.08L624.19,390.41L624,392.8L621.24,394.41L618.75,395.12L615.07,396.62L613.02,398.82L610.85,398.83L609.06,400.27L607.11,401.01L603.51,401.49L601.62,403.44L600.27,403.44L598.1,404.19L596.61,403.36L595.76,401.75L595.85,400.36L595.17,398.97L594.85,396.93L593.66,392.81L593.77,390.12L594.87,388.93L594.81,386.41L595.49,385.82L597.12,386.54L601.02,386.16L601.87,386.56L605.95,386.75L606.96,387.94L608.41,387.34L608.76,386.08L610.46,383.42L613.11,381.82L622.32,380.27L625.2,386.63Z" class="land" id="YE" title="Yemen"/>
    <path d="M566.36,333.32L564.77,332.86L564.59,330.75L565.19,329.35L566.34,329.87Z" class="land" id="PS" title="Palestinian Territories"/>
    <path d="M798.47,370.84L796.85,371.68L796.84,372.54L794.75,372.89L794.71,375.42L793.25,376.73L792.71,380.38L793.83,382.12L796.1,384.21L796.17,385.06L798.87,388.14L801.88,390.27L804.91,393.84L806.08,396.32L807.18,399.55L807.34,401.71L807.97,402.92L807.44,404.08L807.75,407.53L806.69,409.06L805.06,410.49L802,412.49L800.55,412.36L800.03,415.33L796.75,417.38L796.25,418.47L794.63,418.47L794.48,415.46L794.93,413.73L792.88,412.44L794.21,411.98L795.79,410.47L798.28,410.19L797.17,409.14L797.03,407.86L798.59,407.69L798.72,406.69L802.06,405.13L801.69,402.64L801.93,401.11L800.75,398.53L801.08,396.36L801.24,394.3L799.51,392.46L800.02,391.35L797.56,389.79L796.68,387.93L793.65,384.99L792.67,383.43L789.93,380.99L787,378.98L787.22,377.72L788.89,377.96L789.85,376.43L788.34,374.07L786.47,372.97L785.31,373.88L783.5,373.15L781.69,370.26L779.4,367.56L780.37,366.2L782.12,367.28L782.83,366.11L786.25,366.34L787.43,365.56L788.61,363.93L790.72,365.52L792.93,365.57L793.3,367.5L794.19,368.98L796.44,370.46Z" class="land" id="VN" title="Vietnam"/>
    <path d="M666.5,292.98L666.42,293.83L664.9,295.49L666.98,296.64L668.95,297.11L669.82,296.08L672.92,298.11L674.35,298.42L670.73,300.78L668.47,300.46L666.55,299.66L667.38,298.59L666.19,297.53L664.37,298.9L663.36,298.38L661.95,302.71L659.37,302.76L658.6,304.18L661.18,306.32L662.46,308.71L661.47,310.75L661.56,311.93L657.69,311.27L657.31,308.79L654.23,307.93L649.3,305.26L644.05,301.88L640.81,297.27L636.41,296.79L635.18,296.13L634.81,294.24L633.76,292.8L632.55,292.78L629.62,291.01L628.72,291.34L627.82,293.19L626.57,293.32L625.57,294.43L626.19,296.64L623.06,296.42L621.26,287.9L620.13,282.81L627.14,280.74L635.32,285.03L639,288.36L642.44,287.86L646.13,288.14L647.33,287.54L651.52,290.22L652.16,293.88L653.62,293.92L655.33,297.09L658.6,296.89L660.15,298.9L661.79,296.25Z" class="land" id="UZ" title="Uzbekistan"/>
    <path d="M838.76,366.65L837.63,367.65L836.67,366.95L835.36,364.67L835.14,362.56L836.71,357.58L838.21,356.67L839.55,357.81L839.37,365.35Z" class="land" id="TW" title="Taiwan"/>
    <path d="M859.56,486.93L859.29,484.8L860.21,483.7L862.28,483.11L864.92,482.99L865.78,483.95L860.74,486.05Z" class="land" id="TL" title="Timor-Leste"/>
    <path d="M657.69,311.27L655.23,310.44L654.85,311.63L652.72,312.08L652.4,315.05L650.68,316.28L648.54,317.01L648.66,318.41L646.35,319.14L643.09,317.75L641.93,313.91L639.58,313.93L638.5,312.71L636.84,311.9L635.63,310.62L633.12,310.18L629.85,309.02L628.97,308.02L626.69,307.89L626.18,308.55L624.2,308.45L622.83,309.19L622.1,310.69L619.7,311.29L619.05,309.1L618.49,305.28L615.94,303.47L616.81,302.59L615.15,301.4L614.11,299.86L615.03,298.27L617.31,298.93L619.63,298.03L619.05,296.9L617.34,295.69L616.18,293.56L613.68,293.99L612.42,294.72L614.34,293.13L616.81,292.65L619.43,294.2L621.83,296.64L623.06,296.42L626.19,296.64L625.57,294.43L626.57,293.32L627.82,293.19L628.72,291.34L629.62,291.01L632.55,292.78L633.76,292.8L634.81,294.24L635.18,296.13L636.41,296.79L640.81,297.27L644.05,301.88L649.3,305.26L654.23,307.93L657.31,308.79Z" class="land" id="TM" title="Turkmenistan"/>
    <path d="M668.47,300.46L667.13,301.17L665.55,300.59L664.35,300.99L663.75,302.24L665.02,302.94L670.39,302.85L672.53,303.77L677.18,303.41L678.48,306.56L681.4,306.92L683.01,311.71L680.94,311.02L679.57,311.71L678.55,310.81L676.96,311.57L674.16,313.72L672.68,312.1L672.48,309.34L671.11,307.68L669.85,307.12L668.31,309.25L668.54,310.39L666.83,310.35L666.15,312.17L665.06,311.36L662.67,312.76L661.56,311.93L661.47,310.75L662.46,308.71L661.18,306.32L658.6,304.18L659.37,302.76L661.95,302.71L663.36,298.38L664.37,298.9L666.19,297.53L667.38,298.59L666.55,299.66Z" class="land" id="TJ" title="Tajikistan"/>
    <path d="M774.43,375.31L775.9,376.17L775.65,377.42L776.52,378.38L778.15,378.08L778.93,380.34L778.51,382.48L779.2,385.96L781.96,383.22L784.1,384.41L785.15,383.49L786.25,382.44L787.78,382.81L791.11,386.63L791.26,389.08L792.46,390.91L794.53,392.64L794.35,393.91L794.62,397.02L793.77,397.71L792.44,397.4L787.43,397.76L784.96,400.73L785.89,403.99L786.8,404.9L787.64,407.6L786.98,406.45L783.39,403.92L780.62,403.82L780.66,401.13L779.64,400.8L777.66,401.43L778.02,405.86L777.11,408.51L776.85,410.65L776,412.79L776.16,414.98L777.06,416.93L778.09,416.55L779.03,418.96L780.16,420.46L781.4,424.55L782.86,425.73L784.4,425.71L786.47,428.04L785.81,429.6L783.83,429.73L783.09,428.04L780.75,426.89L780.04,427.29L778.59,425.67L776.29,421.89L774.66,420.18L773.54,419.88L773.75,416.64L774.55,413.27L774.58,411.51L775.83,409.85L776.96,407.32L776.01,404.45L775.34,403.73L774.69,400.07L771.37,395.95L771.02,394.5L772.13,393.75L772.1,390.37L770.97,387.85L768.54,385.21L767.13,382.15L767.91,381.68L767.63,378.53L768.84,377.66L770.94,377.35L773.63,374.91Z" class="land" id="TH" title="Thailand"/>
    <path d="M585,312.17L583.54,314.08L582.45,314.39L582.15,316.05L582.68,317.68L582.6,320.95L581.26,322.59L575.83,326.2L570.25,330.17L568.86,329.9L566.93,328.6L566.92,325.97L567.06,325.09L568.8,323.01L568.18,321.53L566.78,321.47L566.44,319.24L565.76,317.94L566.75,316.96L567.94,313.32L570.36,313.91L572.53,312.94L574.36,313.72L576.15,313.77L580.02,312.21Z" class="land" id="SY" title="Syria"/>
    <path d="M793.07,446.39L792.59,446.64L792.04,446.42L792.58,445.96Z" class="land" id="SG" title="Singapore"/>
    <path d="M601.52,342.29L604.36,342.69L605.3,344.41L607.69,344.37L609.53,347.81L611.27,349.5L613.23,350.82L614.15,352.78L613.66,353.53L615.72,357.38L616.61,358.5L618.14,359.18L619.2,360.39L619.36,361.17L622.82,365.48L630.97,366.65L631.2,366.34L632.9,368.98L631.52,376.52L622.32,380.27L613.11,381.82L610.46,383.42L608.76,386.08L608.41,387.34L606.96,387.94L605.95,386.75L601.87,386.56L601.02,386.16L597.12,386.54L595.49,385.82L594.81,386.41L594.87,388.93L593.77,390.12L591.93,386.13L590.1,384.44L588.26,381.46L586.51,377.42L582.69,374.56L580.84,371.58L580.36,369.43L580.57,367.51L579.94,365.67L578.21,362.55L576.37,360.77L575.15,360.37L573.87,358.38L573.63,356.61L571.42,353.55L570.43,351.71L566.66,346.29L564.87,345.86L565.53,341.32L568.89,341.94L570.95,339.39L573.11,338.91L574.51,337.01L570.99,333.27L577.07,331.33L577.47,330.89L581.31,331.59L586.91,334.82L589.57,337.02L595.86,341.92Z" class="land" id="SA" title="Saudi Arabia"/>
    <path d="M618.14,359.18L616.61,358.5L616.22,356.03L616.76,354.01L618.48,354.31L618.97,357.15Z" class="land" id="QA" title="Qatar"/>
    <path d="M841.72,291.91L842.61,292.77L841.94,292.78L840.93,294.97L842.29,298.15L839.51,301.21L837.74,302.16L838.17,304.31L839.54,304.77L842.05,306.49L841.55,307.67L838.94,307.69L838.15,309.65L835.93,309.3L834.67,309.84L833.42,308.69L831.77,308.34L832.24,306.74L832.1,304.01L831.57,303.12L828.75,302.13L827.82,301.33L828.64,299.63L831.17,297.97L832.37,294.71L833.62,295.64L836.63,296.17L835.38,293.95L837.89,293.76L838.36,292.36L839.45,292.13L839.02,290.19Z" class="land" id="KP" title="North Korea"/>
    <path d="M960,476.36L959.18,477.02L958.01,476.49L957.68,474.95L956.42,473.68L957.23,472.07ZM947.57,467.43L949.14,467.59L949.04,469.05L947.73,470.07L948.07,471.39L945.99,472.12L944.98,473.5L942.29,474.83L939.79,474.88L935.9,472.92L935.77,472.09L942.07,472.06L944.21,471.64L945.53,469.91L946.65,469.62L946.38,467.61ZM910.89,485.46L911.79,475.09L912.3,466.41L912.49,461.12L913.18,461.19L916.44,462.89L920.58,464.19L922.16,465.51L923.64,465.67L925.52,467.62L926.31,467.76L927.62,469.4L927.75,471.82L929.49,472.36L931.45,473.49L932.54,473.61L933.82,474.97L933.86,476.27L931.5,476.49L930.92,477.27L931.52,478.95L933.08,480.81L934.29,481.66L934.51,483.35L935.4,485.21L937.53,485.28L937.25,486.54L939.14,488.8L941.58,489.72L940.81,491.14L939.34,490.92L938.6,490.08L932.35,489.02L929.34,485.11L927.56,481.56L924.24,480.53L922.82,479.65L919.72,482.02L918.01,482.44L918.64,484.87L916.19,486.24L914.91,485.65L911.36,485.84ZM950.86,469.15L949.99,468.18L949.83,466.3L951.16,466.71L951.48,467.64Z" class="land" id="PG" title="Papua New Guinea"/>
    <path d="M862.65,416.52L863.82,418.31L864.52,422.09L865.15,424.28L863.67,426.2L862.69,423.96L861.47,425.97L862.53,429.03L861.91,430.2L859.19,428.95L857.3,427.43L856.85,425.23L857.46,423.72L856.62,422.72L855.04,422.18L854.83,423.68L850.66,422.17L851.26,421.36L853.07,420.88L854.58,418.84L857.27,420.45L857.89,419.2L858.8,419.36L859.11,417.83L861.19,417.2L860.93,414.89ZM857.94,414.78L855.88,415.39L856.46,413.48ZM853.49,417.49L851.52,415.92L851.05,414.13L852.24,413.66L851.96,412.1L852.34,410.67L854.26,411.06L853.31,414.49L853.96,416.39ZM834.95,419.82L834.99,418.8L837.25,416.43L839.82,412.66L840.4,410.82L841.87,411.92L840.47,413.76L839.2,414.3L838.31,416.77ZM857.26,408.96L858.39,408.85L858.9,411.04L859.88,413L858.4,413.36L858.18,411.06L857.02,410.53ZM850.48,407.94L852.63,408.24L851.68,410.9L849.92,411.65L849.07,410.72L849.2,407.83ZM858.87,404.52L859.97,405.78L859.83,406.68L860.74,409.75L859.46,409.7L858.07,407.34L856.49,405.93L855.81,404.37ZM843.87,400.96L845.49,401.13L846.66,402.26L846.95,404.11L846.17,405.68L845.03,404.58L843.35,401.78ZM842.12,381.7L844.7,382.9L846.07,382.5L846.03,384.92L847.61,387.29L846.97,390.82L845.4,391.76L845.1,394.04L846.39,396.24L847.06,398.58L849.16,397.8L850.37,398.07L851.83,399.95L855.11,402.62L855.06,404.37L852.44,402.59L851.77,401.1L849.71,399.35L849.32,400.91L847.08,399.24L845.39,400.36L843.23,398.3L843.82,396.32L841.17,395.82L839.53,390.29L840.75,391.33L841,387.93L840.4,385.37L840.59,382.1Z" class="land" id="PH" title="Philippines"/>
    <path d="M693.36,318.22L691.42,319.67L690.36,321.07L687.86,321.95L683.36,320.96L682.42,321.38L683.92,325.69L683.65,326.69L686.25,329.41L688.5,330.31L686.4,332.44L687.28,334.99L685.45,337.25L685.42,338.54L684.21,339.13L683.34,342.54L681.78,343.59L680.82,346.56L677.44,347.44L676.22,346.32L674.13,349.52L674.04,350.92L676.38,352.17L676.36,353.67L677.15,355.05L678.52,356.12L680.17,358.88L680.31,359.96L678.74,359.89L676.26,360.82L673.11,360.47L673.25,361.6L671.55,362L670.01,362.18L668.7,360.81L667.97,358.62L666.45,358.23L666.24,356.86L665.21,355.54L662.98,356.37L660.18,356.55L659.87,357.01L656.83,356.25L656.2,356.91L653.3,356.75L652.55,357.2L650.24,356.95L650.61,353.03L652.23,351.83L654.45,351.44L654.13,349.23L652.87,349.24L652.39,346.41L650.96,344.85L648.49,343.44L647.22,341.25L645.47,339.42L650.78,341.11L654.11,340.78L655.82,341.18L657.02,340.53L658.81,340.55L661.98,339.51L661.98,335.45L663.35,333.97L664.52,334.3L665.22,333.22L666.97,332.09L669.11,332.74L670.16,331.6L669.69,329.73L670.07,327.52L672.2,326.21L670.53,324.22L674.03,323.65L673.39,321.84L674.87,319.39L673.75,316.95L672.84,316.17L673.83,314.69L676.52,313.21L679.93,312.99L682.15,312.49L684.67,312.9L686.4,313.89L687.28,316.26L688.39,317.04L692.31,318.29Z" class="land" id="PK" title="Pakistan"/>
    <path d="M634.04,357.78L635.06,359.7L637.11,361.76L641.5,362.81L645.94,368.16L644.88,370.87L643.52,372.32L642.46,374.97L640.57,375.58L640.33,377.98L640.84,380.19L638.86,380.62L637.31,381.8L637.11,383.39L636.28,384.19L633.8,384.6L632.71,387.61L629.55,387.74L628.16,388.66L626.51,389.08L625.2,386.63L622.32,380.27L631.52,376.52L632.9,368.98L631.2,366.34L631.11,365.1L632.39,360.55L633.13,358.69Z" class="land" id="OM" title="Oman"/>
    <path d="M731.41,346.9L731.58,349.68L732.43,351.22L732.31,352.33L729.97,352.59L728.98,351.85L726.94,351.78L723.47,351.16L721.36,350.03L720.94,349.06L719.18,348.33L716.77,348.78L711.94,346.92L707.44,343.97L705.71,343.29L706.07,339.9L707.62,338.27L708.75,337.62L710.69,337.66L711.21,338.45L714.69,340.35L716.34,341.96L717.92,341.82L718.55,342.98L721.78,345.23L723.54,345.37L726.07,346.69L726.41,346.1L728.42,347.03Z" class="land" id="NP" title="Nepal"/>
    <path d="M786.47,428.04L789.44,430.72L790.95,433.24L791.18,434.95L790.92,437.28L791.26,440.41L792.49,441.73L794.1,445.84L792.18,445.95L789.04,444.44L784.34,440.59L784.32,439.21L782.35,436.55L781.94,433.98L780.95,430.49L780.85,429L780.04,427.29L780.75,426.89L783.09,428.04L783.83,429.73L785.81,429.6ZM836.75,435.78L835.19,435.16L831.3,435.12L830.3,436.65L830.04,440.03L828.87,440.75L829.2,441.94L827.96,442.96L828.12,443.97L827.23,445.89L825.15,446.01L824.26,446.75L820.54,445.54L818.28,447.63L815.6,447.57L814.2,448.15L811.42,445.33L811.32,443.79L812.48,444.95L815.58,445.7L816.26,444.87L816.5,442.27L818.03,440.7L822.24,439.39L824.95,435.51L825.35,434.21L827.19,436.33L827.89,434.95L827.53,433.74L828.41,433.06L828.77,433.06L829.97,432.5L829.58,431.14L830.78,430.68L831.76,428.46L832.82,426.99L835.36,426.41L836.42,427.03L836.57,429.17L837.79,428.75L839.79,430.47L841.86,431.14L841.62,432.31L838.61,433.32L839.7,435.07Z" class="land" id="MY" title="Malaysia"/>
    <path d="M787.85,265.16L788.22,271.98L789.68,272.93L791.81,272.26L793.91,273.05L794.48,271.83L796.57,271.84L801.63,274.89L802.64,276.88L798.4,276.48L796.24,277.78L794.14,278.04L794.09,279.86L793.06,281.1L789.84,281.44L788.19,283.73L782.74,282.55L782.45,285.12L785.07,287.55L782.95,288.92L782.06,291.03L779.73,292.21L776,292.24L772.11,292.83L768.27,294.87L766,294.36L763.86,294.82L761.61,293.88L758.06,293.1L756.95,292.17L751.55,291.38L750.18,291.79L743.22,290.97L740.9,291.22L738.85,289.42L735.72,285.45L733.75,285.19L729.91,283.16L727.19,282.66L723.63,282.51L721.41,282.07L720.34,280.85L720.62,278.98L718.94,275.6L716.31,272.97L713.68,271.77L712.21,271.77L708.37,269.76L707.02,267.55L707.68,266.5L709.49,266.52L711.43,265.54L711.12,264.87L716.01,262.01L723.13,262.51L725.01,264.43L727.76,264.84L728.53,264.47L731.95,264.94L732.83,265.49L734.79,264.24L734.53,262.59L732.5,260.96L732.23,259.66L733.51,257.07L741.69,259.28L743.91,259.64L745.75,262.4L750.33,264.02L754.68,262.81L758.72,263.39L760.78,264.56L762.92,264.79L763.76,265.99L765.9,266.97L767.64,266.93L772.48,267.54L773.57,266.85L777.97,265.91L777.93,265.25L780.23,263.53L783.62,264.7L785.94,264.48Z" class="land" id="MN" title="Mongolia"/>
    <path d="M776.84,370.61L775.8,371.57L774.57,373.76L774.43,375.31L773.63,374.91L770.94,377.35L768.84,377.66L767.63,378.53L767.91,381.68L767.13,382.15L768.54,385.21L770.97,387.85L772.1,390.37L772.13,393.75L771.02,394.5L771.37,395.95L774.69,400.07L775.34,403.73L776.01,404.45L776.96,407.32L775.83,409.85L774.58,411.51L774.55,413.27L773.64,411.45L774.22,410.29L774.23,408.03L773.12,402.15L771.83,400.01L769.97,395.79L768.57,389.5L767.8,389.55L766.9,387.53L765.38,389.4L762.83,390.88L761.84,392.55L760.37,392.19L759.02,390.43L757.9,391.04L758.4,385.62L757.57,383.25L756.06,380.66L754.83,380.16L755.53,378.6L753.16,376.28L752.01,376.22L750.88,374.39L749.45,373.53L748.69,371.64L749.9,370.99L749.52,369.07L750.73,368.97L751.13,367.63L750.64,366.29L751.27,364.73L750.48,361.38L753.16,361.93L754.14,357.52L753.61,356.16L754.72,353.79L754.28,351.7L756.69,349.36L758.48,348.9L760.06,346.65L759.78,345.6L760.2,344.5L762.26,345.88L763.39,348.11L764.46,348.03L765.54,351.75L765.84,354.25L763.58,357.58L763.41,359.62L764.33,361.85L765.83,361.05L767.56,361.03L768.54,364.51L770.11,364.87L770.52,367.12L770.32,368.51L772.67,368.88L773.99,371.01L775.82,370.28Z" class="land" id="MM" title="Myanmar"/>
    <path d="M694.52,435.81L694.4,435.78L694.49,435.54L694.57,435.51Z" class="land" id="MV" title="Maldives"/>
    <path d="M815.35,368.25L815.36,368.08L815.54,368.14Z" class="land" id="MO" title="Macau"/>
    <path d="M714.46,414.68L715.34,414.75L716.91,416.36L719.24,419.85L719.51,421.02L721.08,424.13L721.1,425.57L720.46,427.36L717.58,429.02L715.53,428.37L714.66,425.84L714.31,423.02L714.5,418.1L715.01,416.5Z" class="land" id="LK" title="Sri Lanka"/>
    <path d="M566.92,325.97L565.66,327.31L564.73,327.28L566.78,321.47L568.18,321.53L568.8,323.01L567.06,325.09Z" class="land" id="LB" title="Lebanon"/>
    <path d="M779.4,367.56L781.69,370.26L783.5,373.15L785.31,373.88L786.47,372.97L788.34,374.07L789.85,376.43L788.89,377.96L787.22,377.72L787,378.98L789.93,380.99L792.67,383.43L793.65,384.99L796.68,387.93L797.56,389.79L800.02,391.35L799.51,392.46L801.24,394.3L801.08,396.36L799.02,397.83L797.88,396.84L796.32,397.72L796.27,399.29L793.77,397.71L794.62,397.02L794.35,393.91L794.53,392.64L792.46,390.91L791.26,389.08L791.11,386.63L787.78,382.81L786.25,382.44L785.15,383.49L784.1,384.41L781.96,383.22L779.2,385.96L778.51,382.48L778.93,380.34L778.15,378.08L776.52,378.38L775.65,377.42L775.9,376.17L774.43,375.31L774.57,373.76L775.8,371.57L776.84,370.61L777.33,371.9L778.9,372.18L778.61,369.82L777.58,368.03Z" class="land" id="LA" title="Lao People's Democratic Republic"/>
    <path d="M607.69,344.37L605.3,344.41L604.36,342.69L601.52,342.29L602.95,339.03L604.62,338.53L605.61,338.95L605.75,340.33Z" class="land" id="KW" title="Kuwait"/>
    <path d="M842.05,306.49L843.5,308.17L847.07,311.54L848.32,313.54L849.15,316.13L849.79,316.52L849.87,319.4L847.85,319.7L847.98,320.57L845.64,320.25L844.05,321.56L842.54,321.98L841.03,319.5L841.43,317.19L839.88,314.53L838.29,313.06L839.4,311.85L838.15,309.65L838.94,307.69L841.55,307.67Z" class="land" id="KR" title="South Korea"/>
    <path d="M792.88,412.44L792.31,411.96L789.95,411.72L790.46,410.65L789.76,409.69L788.62,410.57L788.35,408.52L787.64,407.6L786.8,404.9L785.89,403.99L784.96,400.73L787.43,397.76L792.44,397.4L793.77,397.71L796.27,399.29L796.32,397.72L797.88,396.84L799.02,397.83L801.08,396.36L800.75,398.53L801.93,401.11L801.69,402.64L802.06,405.13L798.72,406.69L798.59,407.69L797.03,407.86L797.17,409.14L798.28,410.19L795.79,410.47L794.21,411.98Z" class="land" id="KH" title="Cambodia"/>
    <path d="M693.89,293.19L694.08,293.78L691.63,294.71L689.32,296.24L688.93,297.34L685.17,297.69L684.69,299.67L683.03,300.22L681.87,299.09L677.69,301.19L677.88,302.82L677.18,303.41L672.53,303.77L670.39,302.85L665.02,302.94L663.75,302.24L664.35,300.99L665.55,300.59L667.13,301.17L668.47,300.46L670.73,300.78L674.35,298.42L672.92,298.11L669.82,296.08L668.95,297.11L666.98,296.64L664.9,295.49L666.42,293.83L666.5,292.98L666.93,291.17L668.49,290.85L671.81,291.82L673.45,291.69L673.42,290.18L675.09,289.3L677.91,290.54L683.41,290.29L690.18,291.08L691.47,292.2Z" class="land" id="KG" title="Kyrgyzstan"/>
    <path d="M705.73,267.83L704.22,268.11L704.32,269.86L702.24,270.38L702.25,272.09L703.52,274.51L701.58,276.06L696.53,274.76L696.19,275.32L696.16,280.87L697.09,282.33L694.31,281.64L690.19,282.77L691.66,283.73L692.14,286.12L694.49,289.59L693.23,291.43L693.89,293.19L691.47,292.2L690.18,291.08L683.41,290.29L677.91,290.54L675.09,289.3L673.42,290.18L673.45,291.69L671.81,291.82L668.49,290.85L666.93,291.17L666.5,292.98L661.79,296.25L660.15,298.9L658.6,296.89L655.33,297.09L653.62,293.92L652.16,293.88L651.52,290.22L647.33,287.54L646.13,288.14L642.44,287.86L639,288.36L635.32,285.03L627.14,280.74L620.13,282.81L621.26,287.9L623.06,296.42L621.83,296.64L619.43,294.2L616.81,292.65L614.34,293.13L612.42,294.72L612,291.08L609.68,290.52L607.66,288.4L605.76,285.77L605.52,284.16L606.58,281.47L609.78,281.32L610.9,278.4L610.61,276.65L609.64,275.61L607.64,276.03L604.51,275.04L599.35,277.83L598.38,276.27L595.19,272.71L592.13,271.97L590.54,270.28L591.02,267.78L590.21,266.81L590.98,263.53L591.97,263.15L594.47,265.14L595.48,264.47L594.9,262.35L596.43,260.61L598.36,259.87L599.51,258.29L602.01,259.17L603.86,258.46L604.71,259.18L606.86,259.17L610.56,261.7L611.22,260.92L614.61,262.34L616.16,260.84L618.96,261.31L621.37,260.68L623.22,262.01L625.95,262.42L630.11,261.41L629.42,259.32L626.68,258.57L625.64,257.23L627.33,256.31L626.46,254.66L626.97,252.72L625.99,251.53L626.49,250.02L628.25,250.38L634.73,248.83L636.67,248.9L637.24,247.99L639.23,247.83L643.95,246.8L645.88,245.29L649.47,246.09L650.81,245.59L652.96,248.07L653.21,249.44L658.37,249.81L660.11,250.86L663.24,251.44L667.33,249.09L668.7,250.4L672.61,252.4L675.79,255.03L682.59,261.72L684.4,259.9L686.81,261.85L689.72,261.89L691.77,260.93L693.74,261.72L695.32,263.48L697.71,264.3L698.9,265.73L701.89,266.33L702.97,265.93Z" class="land" id="KZ" title="Kazakhstan"/>
    <path d="M858.11,325.33L859.28,325.14L860.8,326.64L861.62,328.19L861.21,329.13L861.59,333.6L859.57,334.45L857.17,331.02L857.83,329.03L853.74,326.71L857.05,324.32ZM866.88,322.87L868.68,324.51L867.8,326.67L865.75,325.68L864.9,326.25L864.69,328.19L863.1,327.91L861.87,325.67L862.47,323.87L864.87,323.77L865.87,322.49ZM875.51,296.23L877.65,299.07L880.61,301.93L881.72,304.67L881.24,305.18L881.68,307.32L880.72,307.56L880.86,309.02L882.6,312.57L882.4,314.44L883.12,316.1L884.43,317.36L883.51,318.16L883.64,319.5L882.39,320.24L881.22,318.54L880.21,319.04L880.3,321.21L878.47,319.76L878.04,321.6L873.75,320.81L874.39,322.62L873.01,323.17L872.66,325.49L871.25,325.52L869.1,322.76L869.65,321.96L867.29,320.96L863.11,322.7L860.46,322.99L859.2,323.64L856.8,323.93L856.46,322.36L857.5,322.29L860.64,318.16L864.52,318.06L867.11,317.28L869.02,318.19L870.14,313.54L872.04,313.43L872.26,312.76L874.25,311.76L874.9,309.41L875.94,308.29L875.6,303.55L873.09,299.12L873.69,298.19L876.11,298.06ZM877.63,286.05L880.85,286.7L882.1,287.35L884.05,289.53L882.42,290.38L880.61,290.62L880.04,291.68L880.22,293.9L874.99,291.75L872.9,292.63L870.94,292.66L872.97,294.58L872.73,295.69L869.38,292.46L869.07,291.49L870.57,289.39L872.11,289.45L871.46,286.41L870.41,283.84L868.9,282.21L869.17,280.91L872.88,283.46Z" class="land" id="JP" title="Japan"/>
    <path d="M577.47,330.89L577.07,331.33L570.99,333.27L574.51,337.01L573.11,338.91L570.95,339.39L568.89,341.94L565.53,341.32L565.54,340.56L566.36,333.32L566.34,329.87L566.93,328.6L568.86,329.9L570.25,330.17L575.83,326.2Z" class="land" id="JO" title="Jordan"/>
    <path d="M566.93,328.6L566.34,329.87L565.19,329.35L564.59,330.75L564.77,332.86L566.36,333.32L565.54,340.56L562.74,334.34L563.33,332.92L563.84,331.75L564.73,327.28L565.66,327.31L566.92,325.97Z" class="land" id="IL" title="Israel"/>
    <path d="M592.24,312.04L594.64,316.27L595.83,316.94L597.45,319.6L596.23,320.84L595.79,323.95L598.44,326.74L598.48,327.76L602.59,329.77L604.31,332.13L604.22,335.12L605.25,335.16L605.51,337.14L607.38,339.03L605.61,338.95L604.62,338.53L602.95,339.03L601.52,342.29L595.86,341.92L589.57,337.02L586.91,334.82L581.31,331.59L577.47,330.89L575.83,326.2L581.26,322.59L582.6,320.95L582.68,317.68L582.15,316.05L582.45,314.39L583.54,314.08L585,312.17L586.12,311.18L588.42,311.66L590.33,311.51L590.87,312.66Z" class="land" id="IQ" title="Iraq"/>
    <path d="M619.7,311.29L622.1,310.69L622.83,309.19L624.2,308.45L626.18,308.55L626.69,307.89L628.97,308.02L629.85,309.02L633.12,310.18L635.63,310.62L636.84,311.9L638.5,312.71L639.58,313.93L641.93,313.91L643.09,317.75L643.06,320.62L641.76,323.48L642.14,325.2L643.47,325.7L642.61,327.08L644,330.42L644.54,333.31L647.09,333.68L647.8,335.75L646.12,338.4L645.47,339.42L647.22,341.25L648.49,343.44L650.96,344.85L652.39,346.41L652.87,349.24L654.13,349.23L654.45,351.44L652.23,351.83L650.61,353.03L650.24,356.95L649.74,357.32L643.43,355.9L639.45,355.48L636.64,354.73L635.02,350.54L632.93,349.43L630.83,350.26L628.67,351.85L624.88,351.21L621.45,348.96L620.64,347.86L618.02,347L616.69,345.92L615.74,343.68L614.35,342.1L614.14,341.07L611.7,338.1L610.47,338.78L608.46,338.43L607.38,339.03L605.51,337.14L605.25,335.16L604.22,335.12L604.31,332.13L602.59,329.77L598.48,327.76L598.44,326.74L595.79,323.95L596.23,320.84L597.45,319.6L595.83,316.94L594.64,316.27L592.24,312.04L591.3,309.78L590.16,309.17L590.57,307.49L588.78,303.67L590.24,302.21L593.35,305.06L596.63,305.44L599.82,302.66L600.46,302.53L601.63,305.16L601.08,305.76L603.03,307.29L603.76,307.19L604.95,310.07L608.26,311.05L609.71,312.52L611.65,313.54L614.96,313.99L620.27,312.75Z" class="land" id="IR" title="Iran"/>
    <path d="M690.83,478.95L690.75,478.91L690.78,478.69L690.67,478.4L690.85,478.51Z" class="land" id="IO" title="British Indian Ocean Territory"/>
    <path d="M699.21,331.78L700.06,333.99L701.73,334.73L701.85,334.82L703.68,335.52L703.71,335.54L704.78,336.75L707.62,338.27L706.07,339.9L705.71,343.29L707.44,343.97L711.94,346.92L716.77,348.78L719.18,348.33L720.94,349.06L721.36,350.03L723.47,351.16L726.94,351.78L728.98,351.85L729.97,352.59L732.31,352.33L732.43,351.22L731.58,349.68L731.41,346.9L732.83,346.07L733.71,346.91L734.27,348.99L734.43,350.32L737.45,351.3L739.12,350.59L740.44,351.04L744.31,350.73L744.23,349.09L742.46,347.32L743.56,347.43L745.52,346.61L746.67,344.19L748.66,343.39L750.45,341.47L753.15,342.45L754.71,340.97L756.3,342.46L757.95,345.03L759.78,345.6L760.06,346.65L758.48,348.9L756.69,349.36L754.28,351.7L754.72,353.79L753.61,356.16L754.14,357.52L753.16,361.93L750.48,361.38L751.27,364.73L750.64,366.29L751.13,367.63L750.73,368.97L749.52,369.07L748.81,366.41L747.38,362.66L746.53,363.33L745.87,365.3L744.83,364.84L743.98,362.74L744.33,361.12L745.87,360.73L746.55,358.1L745.72,357.07L740.68,357.11L738.62,356.56L738.19,354.17L733.56,352.55L732.79,354.36L734.17,355.54L734.45,357L733.95,359.64L735.97,360.6L735.81,362.69L736.51,363.59L738.33,368.64L738.59,370.29L736.09,370.41L735,369.64L732.51,370.86L731.9,371.86L732.57,373.87L732.07,375.33L730.78,376.8L728.67,377.65L726.4,379.79L724.69,382.91L723.36,383.75L722.12,385.48L719.67,387.4L719.57,389.41L718.08,390.27L716.44,390.52L715.81,392.42L714.7,391.9L713.64,392.6L713.11,394.98L713.6,398.21L714.62,401.4L714.47,403.91L713.49,406.54L713.88,412.78L712.44,412.84L711.32,415.17L711.36,416.72L709.6,417.33L708.91,418.13L708.58,420.03L706.9,421.17L705.06,419.94L703.63,418.09L702.78,416.03L702.74,414.27L700.39,408.89L698.52,406.28L696.86,402.46L696.36,400.25L695.18,397.15L693.6,394.98L693.43,393.77L691.75,391.31L691.16,389.79L690.14,385.43L688.81,381.45L687.67,377.14L688.02,374.39L687.55,372.31L686.41,370.13L686.28,367.94L685.47,367.97L684.75,369.65L685.58,370.75L685,372.16L682.06,373.73L681.09,373.72L679.06,372.39L675.01,368.25L678.52,366.83L678.56,365.34L676.81,366.13L675.42,365.8L673.38,364.51L671.55,362L673.25,361.6L673.11,360.47L676.26,360.82L678.74,359.89L680.31,359.96L680.17,358.88L678.52,356.12L677.15,355.05L676.36,353.67L676.38,352.17L674.04,350.92L674.13,349.52L676.22,346.32L677.44,347.44L680.82,346.56L681.78,343.59L683.34,342.54L684.21,339.13L685.42,338.54L685.45,337.25L687.28,334.99L686.4,332.44L688.5,330.31L686.25,329.41L683.65,326.69L683.92,325.69L682.42,321.38L683.36,320.96L687.86,321.95L690.36,321.07L691.42,319.67L693.36,318.22L693.41,318.26L695.57,321.38L697.83,322.51L697.49,323.51L698.14,325.72L699.32,326.75L699.44,326.95L700.19,329.24L700.25,329.47L697.69,329.4Z" class="land" id="IN" title="India"/>
    <path d="M843.35,486.42L844.83,487.54L845.75,488.9L844.39,489.86L841.89,487.91L840.25,487.66L840.68,486.45ZM859.56,486.93L857.27,489.31L855.36,490.04L854.64,488.63L855.16,487.32L856.31,486.29L857.67,485.73L859.29,484.8ZM832.74,483.57L831.8,484.75L830.93,482.91L832.09,482.04ZM852.51,483.56L848.78,484.64L846.78,484.77L842.91,483.88L843.34,482.94L845.63,482.17L848.22,483.44L849.93,482.98L850.84,483.61ZM837.99,482.46L840.38,482.54L840.31,484.08L837.66,484.42L833.94,485.38L833.1,485.04L833.39,483.26L834.5,482.65L835.78,482.87L837.64,481.73ZM829.03,481.85L829.79,482.8L828.16,484.26L825.91,481.72ZM903.34,482.3L902.53,482.79L900.61,482.25L901.85,479.93L902.84,479.17L904.39,478.99L905,480.14ZM880.21,481.27L880.17,479.29L881.56,479.18ZM824.14,477.93L822.91,478.35L820.65,478.06L821.04,477.16L824.62,477.06ZM891.01,475.45L890.33,476.84L889.38,476.67L889.89,474.45ZM803.52,473.82L804.42,474.6L806.44,474.79L807.56,476.75L813.16,477.34L814.27,475.56L815.57,476.3L816.82,476.22L818.53,477.14L819.98,477.26L820.65,479.6L822.07,480.22L824.74,479.9L825.87,480.88L825.7,483.37L824.75,483.62L821.93,482.35L820.04,482.8L816.31,482.41L813.45,481.83L811.68,480.86L807.56,480.03L806.6,480.51L804.89,480.24L802.92,479.3L800.82,479.09L800.55,477.73L797.27,476.72L799.35,473.47L801.73,474.16ZM891.87,472.7L891.79,474.43L890.73,475.05L890.56,472.72ZM852.92,471.06L852.12,469.19L853.22,468.63ZM866.87,462.91L868.01,464.04L867.99,464.95L866.21,465.66L864.72,464.84L864.16,463.22ZM876.24,462.08L878.24,462.54L879.72,464.71L879.5,465.79L876.47,463.8L875.24,464.28L873.64,463.8L871.86,464.14L870.8,463.27L871.21,462.08L875.19,461.8ZM806.65,462.57L804.71,463.36L804.94,460.96L806.25,461.07ZM860.88,457.74L859.08,458.86L858.98,457.68ZM799.76,457.61L800.75,460.58L801.74,461.48L801.28,462.79L799.53,461.93L798.89,459.52L796.79,459L798.29,457.08ZM871.17,457.57L869.26,457.83L869.55,456.35ZM777.53,458.01L776.6,457.59L775.74,455.85L776.61,454.79L777.87,457.45ZM912.49,461.12L912.3,466.41L911.79,475.09L910.89,485.46L907.91,481.65L904.42,481.82L905.35,479.73L904.36,478.47L904.85,477L903.62,475.08L902.61,471.8L899.6,469.77L896.09,468.3L893.57,468L890.3,465.56L888.76,463.94L887.36,466.55L886.45,466.67L885.81,465.21L885.86,463.68L884.6,462.49L887.38,460.48L888.72,460.89L889.77,459.23L886.66,459.86L884.55,459.75L883.65,458.81L883.38,457.2L881.33,456.58L881.24,454.57L883.01,454L884.06,453.07L885.67,452.71L888.4,454.08L890.02,454.15L890.91,456.46L890.39,457.8L890.52,459.57L893.24,463.83L894.69,463.87L897.22,461.02L897.73,459.87L899.2,459.58L900.13,458.25L902.36,456.91L905.06,458.06L908.7,460.14L911.38,460.51ZM772.11,445.9L773.58,447.73L773.41,449.02L771.88,447.83ZM860.66,447.65L859.18,449.61L857.01,450.23L854.84,449.55L850.83,449.74L849.49,449.52L846.01,449.69L844.92,452.52L845.19,453.8L846.54,455.25L847.01,456.49L848.19,456.63L849.78,454.57L851.23,454.86L852.24,454.2L854.21,454.19L852.95,456.41L850.38,458.33L850.76,460.08L852.45,463.33L851.92,464.9L853.87,466.73L853.9,467.62L851.65,468.17L850.65,469.49L849.31,468.49L849.81,466.67L847.61,464.66L848.15,461.65L846.87,461.34L845.54,462.78L846.05,465.22L845.86,468.63L845.34,472.08L843.39,472.65L842.35,471.65L843.28,467.9L843.38,466.45L842.8,464.36L841.42,464.59L840.82,461.7L841.84,460.65L842.63,458.58L842.62,456.63L844.15,453.18L844.27,450.48L845.74,447.74L846.54,448.31L847.8,446.55L850.01,447.38L852.74,447.57L854.22,448.19L855.46,447.9L857.3,448.24L858.67,447.55L860.95,445.01L861.75,445.76ZM869.85,448.2L872.05,445.7L872.97,447.24L871.68,448.09L872.96,450.02L869.29,449.54L868.83,446.69L869.47,444.48L870.71,445.01L870.73,446.39ZM836.75,435.78L837,437.78L835.51,437.94L837,439.92L838.55,442.71L837.92,444.01L838.63,445.01L841.59,447.7L840.14,448.33L837.59,448.64L836.88,450.49L836.69,452.58L837,454.25L833.72,456.88L833.26,459.04L833.7,459.96L831.6,464.8L827.45,466.95L827.03,464.43L825.59,463.62L824.64,464.29L823.8,463.27L822.01,463.28L820.79,464.08L819.78,463.78L818.26,464.57L818.32,462.8L816.86,462.33L815.8,462.79L813.19,462.3L812.61,456.6L811.88,455.15L810.81,454.62L809.87,453.22L810.18,451.25L809.17,450.04L809.04,448.4L809.56,445.78L811.32,443.79L811.42,445.33L814.2,448.15L815.6,447.57L818.28,447.63L820.54,445.54L824.26,446.75L825.15,446.01L827.23,445.89L828.12,443.97L827.96,442.96L829.2,441.94L828.87,440.75L830.04,440.03L830.3,436.65L831.3,435.12L835.19,435.16ZM768.55,431.83L771.65,431.8L773.17,433.13L774.33,434.87L774.57,436.07L779.26,439.48L781.68,442.93L783.58,442.93L785.01,445.04L786,445.31L788.25,448.46L790.18,449.53L791.51,449.58L792.51,451.2L791.35,452.08L791.36,453.36L792.29,454.68L794.35,455.25L795.27,460.28L797.62,460.26L799.65,462.98L798.95,464.87L798.9,470.09L798.56,472.59L797.07,472.11L796.17,472.84L794.79,472L794.6,473.44L792.26,470.35L788.21,466.89L786.95,464.82L785.23,463.2L782.95,459.38L782.99,458.6L781.26,454.46L778.98,450.99L777.56,450.06L776.36,445.78L775.59,444.26L772.77,442.55L772.38,440.73L770.3,438.01L768.58,437.11L765.4,433.58L764.4,431.62L765.71,430.4L767.39,431.58Z" class="land" id="ID" title="Indonesia"/>
    <path d="M816.8,367.06L817.56,366.95L817.76,367.88Z" class="land" id="HK" title="Hong Kong"/>
    <path d="M808.76,376.53L809.38,377.8L808.3,379.61L808.18,381.2L805.55,383.19L802.76,382L802.23,378.99L804.84,376.56L807.75,376.23ZM841.72,291.91L839.02,290.19L839.45,292.13L838.36,292.36L837.89,293.76L835.38,293.95L836.63,296.17L833.62,295.64L832.37,294.71L831.17,297.97L828.64,299.63L827.82,301.33L827.32,301.94L825.19,302.23L822.79,303.72L821.09,303.59L819.92,302.7L820.73,299.33L819.01,298.21L816.88,297.99L815.89,300.49L813.76,301.71L812.87,304.46L809.54,304.58L809.62,306.49L811.64,308.14L814.63,308.67L815.58,309.95L815.7,311.33L817.49,312.11L820.38,309.45L823.61,310.85L826.56,310.98L827.01,312.77L825.22,312.73L822.9,314.08L821.1,316.85L819.72,320.04L821.4,321.65L823.63,322.62L827.37,327.54L827.76,328.87L829.81,329.96L830.29,331.89L833.05,335.44L830.76,336.79L831.56,337.75L834.45,339.29L834.47,341.69L835.09,345.04L833.61,345.32L832.31,349.81L831.48,355.48L830.21,356.87L829.35,359.29L827.82,359.11L828.06,360.54L824.2,364.55L824.18,365.43L821.31,366.28L817.56,366.95L816.8,367.06L815.27,365.75L815.54,368.14L815.36,368.08L815.35,368.25L813.93,368.54L812.85,369.83L810.77,369.55L809.91,370.64L807.41,371.29L805.83,372.6L807.2,374.55L806.15,375.51L804.24,373.06L804.68,370.94L799.45,370.14L798.47,370.84L796.44,370.46L794.19,368.98L793.3,367.5L792.93,365.57L790.72,365.52L788.61,363.93L787.43,365.56L786.25,366.34L782.83,366.11L782.12,367.28L780.37,366.2L779.4,367.56L777.58,368.03L778.61,369.82L778.9,372.18L777.33,371.9L776.84,370.61L775.82,370.28L773.99,371.01L772.67,368.88L770.32,368.51L770.52,367.12L770.11,364.87L768.54,364.51L767.56,361.03L765.83,361.05L764.33,361.85L763.41,359.62L763.58,357.58L765.84,354.25L765.54,351.75L764.46,348.03L763.39,348.11L762.26,345.88L760.2,344.5L759.78,345.6L757.95,345.03L756.3,342.46L754.71,340.97L753.15,342.45L750.45,341.47L748.66,343.39L746.67,344.19L745.52,346.61L743.56,347.43L742.46,347.32L742.22,346.6L738.22,346.11L736.88,345.25L735.66,346.01L734.27,348.99L733.71,346.91L732.83,346.07L731.41,346.9L728.42,347.03L726.41,346.1L726.07,346.69L723.54,345.37L721.78,345.23L718.55,342.98L717.92,341.82L716.34,341.96L714.69,340.35L711.21,338.45L710.69,337.66L708.75,337.62L707.62,338.27L704.78,336.75L703.71,335.54L703.68,335.52L701.85,334.82L701.73,334.73L700.06,333.99L699.21,331.78L697.69,329.4L700.25,329.47L700.19,329.24L699.44,326.95L699.32,326.75L698.14,325.72L697.49,323.51L697.83,322.51L695.57,321.38L693.41,318.26L693.36,318.22L692.31,318.29L688.39,317.04L687.28,316.26L686.4,313.89L684.67,312.9L682.15,312.49L683.01,311.71L681.4,306.92L678.48,306.56L677.18,303.41L677.88,302.82L677.69,301.19L681.87,299.09L683.03,300.22L684.69,299.67L685.17,297.69L688.93,297.34L689.32,296.24L691.63,294.71L694.08,293.78L693.89,293.19L693.23,291.43L694.49,289.59L692.14,286.12L691.66,283.73L690.19,282.77L694.31,281.64L697.09,282.33L696.16,280.87L696.19,275.32L696.53,274.76L701.58,276.06L703.52,274.51L702.25,272.09L702.24,270.38L704.32,269.86L704.22,268.11L705.73,267.83L707.02,267.55L708.37,269.76L712.21,271.77L713.68,271.77L716.31,272.97L718.94,275.6L720.62,278.98L720.34,280.85L721.41,282.07L723.63,282.51L727.19,282.66L729.91,283.16L733.75,285.19L735.72,285.45L738.85,289.42L740.9,291.22L743.22,290.97L750.18,291.79L751.55,291.38L756.95,292.17L758.06,293.1L761.61,293.88L763.86,294.82L766,294.36L768.27,294.87L772.11,292.83L776,292.24L779.73,292.21L782.06,291.03L782.95,288.92L785.07,287.55L782.45,285.12L782.74,282.55L788.19,283.73L789.84,281.44L793.06,281.1L794.09,279.86L794.14,278.04L796.24,277.78L798.4,276.48L802.64,276.88L801.63,274.89L796.57,271.84L794.48,271.83L793.91,273.05L791.81,272.26L789.68,272.93L788.22,271.98L787.85,265.16L791.84,266.28L792.82,265.08L794.46,264.47L793.85,263.15L793.8,258.75L794.74,257.41L793.69,255.55L791.38,254.5L792.24,253.13L796.09,252.02L799.47,251.8L803.73,253.27L806.26,253.6L809.54,255.89L814.12,260.55L817.93,263.76L818.4,264.98L820.47,266.08L822.4,265.97L825.35,266.97L831.06,270.54L832.84,272.85L837.17,272.82L837.34,271.98L840.96,270.42L841.84,270.61L843.7,272.82L842.9,274.33L844.22,278.2L843.8,280.97L844.01,282.68L840.8,281.89L838.85,283.12L840.98,286.22L842.21,288.58L842.63,290.55Z" class="land" id="CN" title="China"/>
    <path d="M742.46,347.32L744.23,349.09L744.31,350.73L740.44,351.04L739.12,350.59L737.45,351.3L734.43,350.32L734.27,348.99L735.66,346.01L736.88,345.25L738.22,346.11L742.22,346.6Z" class="land" id="BT" title="Bhutan"/>
    <path d="M828.41,433.06L827.53,433.74L827.89,434.95L827.19,436.33L825.35,434.21L827.8,432.88L828.41,433.06L828.77,433.06Z" class="land" id="BN" title="Brunei"/>
    <path d="M615.56,354.38L615.08,354.07L614.95,353.23L615.47,353.48Z" class="land" id="BH" title="Bahrain"/>
    <path d="M749.52,369.07L749.9,370.99L748.69,371.64L749.45,373.53L748.37,372.09L747.91,370.17L746.41,367.09L745.32,365.99L743.99,366.74L742.28,366.16L743.08,368.02L741.99,369.68L740.79,369.05L739.13,370.03L738.33,368.64L736.51,363.59L735.81,362.69L735.97,360.6L733.95,359.64L734.45,357L734.17,355.54L732.79,354.36L733.56,352.55L738.19,354.17L738.62,356.56L740.68,357.11L745.72,357.07L746.55,358.1L745.87,360.73L744.33,361.12L743.98,362.74L744.83,364.84L745.87,365.3L746.53,363.33L747.38,362.66L748.81,366.41Z" class="land" id="BD" title="Bangladesh"/>
    <path d="M633.46,355.26L634.04,357.78L633.13,358.69L632.39,360.55L631.11,365.1L631.2,366.34L630.97,366.65L622.82,365.48L619.36,361.17L619.2,360.39L620.38,361.52L622.65,360.89L626.59,361.18L628.09,360.42L628.97,358.42L632.28,354.72L632.6,353.71Z" class="land" id="AE" title="United Arab Emirates"/>
    <path d="M683.01,311.71L682.15,312.49L679.93,312.99L676.52,313.21L673.83,314.69L672.84,316.17L673.75,316.95L674.87,319.39L673.39,321.84L674.03,323.65L670.53,324.22L672.2,326.21L670.07,327.52L669.69,329.73L670.16,331.6L669.11,332.74L666.97,332.09L665.22,333.22L664.52,334.3L663.35,333.97L661.98,335.45L661.98,339.51L658.81,340.55L657.02,340.53L655.82,341.18L654.11,340.78L650.78,341.11L645.47,339.42L646.12,338.4L647.8,335.75L647.09,333.68L644.54,333.31L644,330.42L642.61,327.08L643.47,325.7L642.14,325.2L641.76,323.48L643.06,320.62L643.09,317.75L646.35,319.14L648.66,318.41L648.54,317.01L650.68,316.28L652.4,315.05L652.72,312.08L654.85,311.63L655.23,310.44L657.69,311.27L661.56,311.93L662.67,312.76L665.06,311.36L666.15,312.17L666.83,310.35L668.54,310.39L668.31,309.25L669.85,307.12L671.11,307.68L672.48,309.34L672.68,312.1L674.16,313.72L676.96,311.57L678.55,310.81L679.57,311.71L680.94,311.02Z" class="land" id="AF" title="Afghanistan"/>
  </g>
</svg>